<svg width="40" height="48" viewBox="0 0 40 48" fill="none" xmlns="http://www.w3.org/2000/svg">
<g id="herb-polski.svg" clip-path="url(#clip0_20_2022)">
<g id="g2379">
<path id="path2161" fill-rule="evenodd" clip-rule="evenodd" d="M0 0.55957L0.524559 38.0555C0.524559 38.0555 0.571687 41.4306 3.9956 43.672C4.95207 44.2982 6.47385 44.7936 8.81067 44.7616C9.52297 44.7516 13.5988 44.7308 15.6517 44.7874C17.1505 44.8288 19.6456 45.8674 19.8206 47.6096H20.1725C20.3232 45.5919 22.8197 44.831 24.3415 44.7874C26.3845 44.7289 30.4695 44.7518 31.1818 44.7616C33.5186 44.7938 35.0404 44.2982 35.9969 43.672C39.4208 41.4306 39.4679 38.0555 39.4679 38.0555L39.9925 0.55957H0Z" fill="#DC143C"/>
</g>
<path id="path3360" fill-rule="evenodd" clip-rule="evenodd" d="M16.7119 3.048C17.3636 4.18561 17.625 5.26216 17.9852 6.29033C18.5818 6.20929 19.2644 6.37151 19.9403 6.41901C20.712 6.57035 21.3224 6.63586 21.8955 6.54778C22.2473 4.92762 22.5518 4.11823 23.2522 2.97844C22.9415 3.18979 22.28 3.27617 22.0207 3.66028C21.632 3.31451 21.3237 3.53095 21.1301 3.89686C21.196 3.60479 21.1089 3.35721 20.7266 3.33327C20.9532 2.90831 20.6042 2.69754 20.2395 2.88793C20.2294 2.51782 19.9336 2.51474 19.9125 2.31738C19.8634 2.54596 19.6041 2.43289 19.6411 2.9854C19.3459 2.74816 19.0575 2.90273 19.168 3.31936C18.8098 3.31775 18.7098 3.61272 18.7436 3.98033C18.4979 3.41035 18.0364 3.58441 17.8739 3.78548C17.5858 3.21793 17.3681 3.57632 16.7119 3.048Z" fill="#F6D155"/>
<path id="path3358" fill-rule="evenodd" clip-rule="evenodd" d="M22.4603 5.94735C22.0452 6.66082 21.8673 6.71039 20.0469 6.43046C18.6071 6.28682 17.3101 5.88022 17.2505 7.18509C17.7268 7.24164 18.4195 7.29332 18.7212 8.31122L17.8401 9.06302C17.2178 9.16098 16.2362 9.99366 15.5878 9.21937C15.4098 9.94747 16.0783 10.1523 16.7757 10.1232C17.2644 10.073 17.4204 9.94181 18.3328 9.76145L18.5745 10.0215C19.9525 10.1355 20.6661 12.1063 18.4313 13.2626C18.3447 13.5302 18.4875 13.8513 18.7 13.8894C18.0503 14.8083 16.9841 15.9549 16.6016 15.1984C16.5125 15.2821 16.2615 15.9074 16.748 16.2529C16.3784 16.708 16.2356 17.2465 16.2554 17.8685C14.7823 17.6384 13.8121 17.3887 14.1423 16.0111C15.7096 16.0835 16.1343 14.1908 15.904 13.2314C14.9932 9.39901 10.0494 6.32532 6.45113 6.2251C6.65129 7.26784 7.29462 8.0202 8.0272 8.71409C7.07298 8.24959 5.96563 7.79924 4.80582 8.03541C4.93986 8.85912 5.38648 9.81458 7.26588 11.3732C5.91127 10.5688 4.66184 9.78353 4.22177 9.14382C4.02626 9.40759 3.91607 10.4819 5.07252 11.2659C4.70528 11.1195 2.89023 11.1325 2.34141 11.5346C2.67298 12.2891 4.18767 13.6078 5.43063 14.0144C4.25205 13.843 3.14729 13.3681 2.13565 12.5104C1.9862 12.6445 2.14139 14.0407 3.39793 14.5965C2.99095 14.6236 1.60265 15.0131 1.24414 15.4603C1.96847 16.4273 3.82056 17.2791 4.74092 17.2825C3.4855 17.4462 2.1145 17.1938 1.54447 17.0143C1.55714 17.3351 1.28719 18.6237 4.72312 18.411C3.49728 18.9902 1.64712 20.1959 1.35177 21.2589C2.5427 21.7862 4.67832 21.3517 5.7828 21.0052C2.51672 22.9959 2.00705 23.2005 1.40123 23.0668C2.19202 24.7388 4.09758 23.6092 5.74402 22.6727C3.7199 25.381 3.39078 26.7616 3.43393 28.6806C5.06397 28.4844 7.42351 26.1495 8.68089 24.1589C7.22383 27.156 6.35656 29.5654 4.76783 30.2744C6.57788 30.9915 8.13034 28.72 9.22102 26.3108C8.80329 27.8358 8.63049 31.0685 9.16404 31.8592C10.8005 30.7505 12.0401 28.2888 12.8709 25.4664C12.5875 26.8572 12.3778 28.2478 11.8682 29.6385C12.9202 29.8386 13.4578 27.9511 13.8127 26.8453C13.8455 26.9033 13.8845 26.952 13.986 27.0463C15.315 26.0822 15.7378 23.8442 15.8312 22.9679C17.0428 23.3122 17.576 22.8728 17.8864 22.6474C18.1518 23.0149 18.1686 23.5882 18.2433 23.6667C16.9254 22.5962 15.5119 23.6691 15.4541 25.4521C15.3113 26.1961 14.9137 27.0567 13.9187 27.7226C13.9809 27.8036 14.1199 27.8364 14.3002 27.833C14.1269 28.1312 13.9696 28.389 13.6758 28.6592C13.7517 28.7032 13.8467 28.7092 13.9366 28.7253C13.7154 29.0947 13.3462 29.4435 12.9774 29.6212C13.0659 29.706 13.1163 29.7345 13.3846 29.8072C13.1387 30.1336 12.7376 30.4281 12.3593 30.5871C13.0812 31.0158 13.6327 31.0708 14.0802 31.0299C14.081 31.0298 14.0818 31.0299 14.0826 31.0299C13.797 31.5948 13.3363 31.8809 12.8864 32.1347C13.0264 32.2661 13.1947 32.2946 13.3347 32.2553C12.9279 32.6779 12.4983 33.0108 12.1104 33.131C12.181 33.1839 12.2305 33.2567 12.4804 33.2379C12.2028 33.5804 11.8661 33.9149 11.2703 34.0704C11.3882 34.2971 11.6305 34.2623 11.8398 34.2699C11.677 34.6202 11.1674 34.7378 10.6515 34.8464C11.0403 34.9563 11.3046 35.1652 11.0733 35.1107C10.9163 35.2999 10.7623 35.3979 10.4259 35.4482C10.0803 35.5 8.8429 35.0543 8.34415 35.2262C8.20295 34.9451 7.86127 34.7514 7.50092 34.7514C7.04049 34.7514 6.58792 35.0449 6.56668 35.455C6.49536 35.4055 6.19489 35.366 6.24062 35.7224C6.34904 35.9323 6.35432 36.1008 7.01698 36.356C7.12493 36.404 7.25629 36.4292 7.41545 36.4225C7.65148 36.4125 7.91554 36.2939 8.11306 36.1225L8.10911 36.1296C8.43905 36.1907 8.80232 36.246 9.00299 36.3298C8.48097 36.3715 8.30144 36.6596 8.00385 36.8668C7.87857 36.8605 7.77496 36.8295 7.66157 36.8114L7.66513 36.8154C7.59711 36.7983 7.5284 36.7907 7.46135 36.7944C7.08868 36.8145 6.713 37.2345 6.67272 37.7104C6.66456 37.8069 6.68842 37.8991 6.73524 37.9835L6.7297 38.0645C6.62099 38.1987 6.66405 38.3054 6.77007 38.3827C7.22501 38.5634 7.49637 38.4523 7.65999 38.4191C8.07279 38.3691 8.41815 38.0288 8.41815 37.6503C8.41815 37.6494 8.41815 37.6485 8.41815 37.6475L8.42685 37.657C8.91519 37.5556 9.39668 37.4199 9.6642 37.223C9.67798 37.2526 9.68602 37.285 9.68003 37.3246C9.51012 37.4253 9.23066 37.5852 9.08292 38.0781C9.03883 38.0739 8.99682 38.0718 8.95709 38.0718C8.39854 38.0709 8.26068 38.4566 8.27055 38.7717C8.28018 39.0789 8.39182 39.2768 8.5511 39.3961C8.5173 39.5874 8.54076 39.7473 8.73866 39.8112C9.40547 39.9158 9.56585 39.5708 9.69981 39.5793C9.69239 39.4916 9.71032 39.4294 9.73503 39.374C9.93955 39.279 10.0783 39.2014 10.0975 38.8172C10.115 38.5786 10.0744 38.4325 9.99619 38.3392L10.014 38.3443C10.0141 38.345 10.0143 38.3456 10.0144 38.3463C10.015 38.3456 10.0157 38.3452 10.0164 38.3448L10.0219 38.3463L10.0211 38.3407C10.6318 37.8193 11.0229 37.4077 11.2866 37.0598C11.5216 37.1139 12.0486 37.1015 12.3079 37.0147L12.2976 37.1081C12.0529 37.3409 12.2192 37.8967 12.5421 37.8844C12.5282 37.9367 12.5308 37.9839 12.5421 38.036C12.7517 38.1653 13.1389 38.0745 13.4344 38.1405C13.5859 38.1227 13.6579 38.0209 13.6196 37.8133L13.6145 37.8101C13.8515 37.6697 14.0105 37.4165 13.9801 37.0963C13.9801 36.6537 13.6346 36.3003 13.2085 36.2724L13.2109 36.2704C12.7548 36.2212 12.3172 36.5501 12.4127 35.8399C13.6611 34.3615 15.3654 32.1282 15.8312 31.8568C15.794 31.8084 15.7689 31.7449 15.7477 31.6831C15.9326 32.1727 16.6322 32.689 17.3681 32.6446C17.2356 32.3925 17.0885 32.1685 17.0361 31.4947C17.1461 31.6537 17.3337 31.7283 17.5631 31.7753C17.2191 30.2012 17.7324 28.9061 18.7894 27.7225C18.7055 29.2456 18.5131 30.7782 17.5885 32.3308C18.0642 32.4798 18.686 31.9948 18.7716 31.7068C18.8728 33.0782 17.5733 34.8435 16.5569 33.9971C15.9188 35.4 17.4321 36.0808 18.3866 35.2665C18.2252 36.1152 17.562 36.6141 16.839 36.8089C16.116 37.0038 15.3627 36.6966 15.8434 35.5392C15.7415 35.4789 14.2913 35.4422 14.2503 37.0234C14.2936 37.9371 14.9105 38.2809 14.9662 38.2968C12.8982 39.8656 14.9816 41.614 16.6878 41.2744C18.0408 41.0656 18.8097 39.9693 19.2999 39.1744C19.1517 39.7463 18.5399 41.5827 20.0988 43.5714C21.6433 41.1593 20.99 39.5341 20.9527 39.2762C22.1668 41.1475 23.364 41.2824 24.0716 41.236C25.2811 41.2554 26.9935 39.3548 24.8163 38.1389C25.9304 37.6085 26.0039 35.4049 24.4344 35.2918C24.7577 36.1649 24.0755 36.6926 23.3229 36.6245C22.5703 36.5565 21.8768 36.1226 21.6099 35.145C23.0916 35.8576 23.7793 34.4557 23.275 33.6948C22.0105 34.7404 21.4125 33.0631 21.2427 32.0649C21.5657 32.3108 21.8453 32.3962 22.3887 32.3158C21.3601 30.9931 21.1199 29.2188 21.0279 27.5524C21.7279 28.6655 22.4191 30.0279 22.3966 31.3625C22.5586 31.283 22.7059 31.2614 22.9977 30.6772C23.024 31.6755 22.91 31.8106 22.5723 32.2283C23.1254 32.4608 23.8517 32.0137 24.1974 31.4203C24.1985 31.4188 24.1994 31.4171 24.2006 31.4156C25.2752 32.8664 26.4352 34.3556 27.5636 35.5071C27.8083 35.7625 27.893 36.018 27.4398 36.1078C25.9896 35.5725 25.8374 37.0889 26.439 37.2941C26.3916 37.4311 26.3783 37.5733 26.4197 37.723C26.705 37.811 27.2883 37.5745 27.4445 37.5659C27.5172 37.5004 27.5178 37.3631 27.5157 37.2229C27.6613 37.2157 27.7609 37.1393 27.8303 37.0178C28.1131 37.0721 28.3875 37.1083 28.7452 36.8129L29.8175 37.89C29.8732 37.922 29.7607 38.037 29.9125 38.0518C29.7933 38.7672 30.0653 38.8484 30.2987 39.0288C30.2508 39.7132 31.275 39.3186 31.3754 39.3576C31.4839 39.2936 31.4931 39.2197 31.4755 39.1432C31.5946 39.0183 31.5388 38.9549 31.4996 38.8666C32.0127 38.0844 31.285 37.4881 30.8847 37.5564C30.4589 37.0891 30.1519 36.8926 29.808 36.6127C30.5117 36.8782 31.5974 37.1785 31.9092 37.4084C32.0279 38.2066 32.7278 37.8768 33.2435 37.9042C33.4037 37.6791 33.3177 37.6093 33.2435 37.5323C33.9222 36.6567 32.4902 35.9383 31.8807 36.4555C31.5191 36.1219 31.2061 36.0636 30.88 35.9313C31.0161 35.7944 31.3043 35.6876 31.9523 35.6456C32.243 35.8381 32.5334 35.9058 32.824 35.6931C32.949 35.9669 33.1979 35.8958 33.2862 35.8454C33.4988 35.6003 33.5048 35.2281 33.5628 34.8878C33.5048 34.7645 33.4124 34.6841 33.253 34.6876C32.8128 33.9347 31.9627 34.3925 31.9139 34.7303C31.1811 34.7903 30.5294 34.8838 29.7554 35.1929C29.5001 35.2698 29.2572 34.9936 29.0408 34.8352C29.2367 34.7569 29.4075 34.6676 29.4028 34.5016C29.0894 34.4709 28.7833 34.4928 28.4211 34.1206L28.5165 33.8633C28.2369 33.7777 27.9363 33.574 27.5684 32.996C27.6455 32.95 27.7184 32.8735 27.7828 32.7388C27.3646 32.6421 27.0222 32.4207 26.7437 32.0954C26.8434 32.0466 26.9381 31.9616 27.0251 31.8239C26.635 31.5884 26.2595 31.3836 25.5119 30.4093C25.5091 30.4046 25.5063 30.3993 25.5036 30.3951C26.2909 30.5265 27.1131 30.449 27.5996 30.0951C27.2128 29.9873 26.53 29.7622 26.2254 29.1731C26.3765 29.1609 26.4595 29.1313 26.5534 29.1047C25.963 28.7149 25.8066 28.5042 25.6568 28.1882C25.781 28.2007 25.9587 28.1442 26.018 28.0577C25.6373 27.8865 25.4704 27.6495 25.3347 27.3913C25.4911 27.3945 25.6557 27.425 25.7822 27.3284C24.2782 26.65 24.4874 23.1336 22.873 23.1229C22.1545 23.1817 22.024 23.3374 21.6535 23.5266C21.7622 23.2258 21.9462 22.9438 22.1382 22.6639C23.0199 23.0757 23.7188 22.8436 23.9557 22.637C24.0761 24.0503 24.5293 25.5668 25.5104 26.3257C25.6785 26.231 25.8805 26.1092 26.0038 25.9732C26.1788 27.2861 26.669 29.0117 27.7698 28.8685C27.2625 27.6043 27.2706 26.3341 27.2146 25.0709C27.6761 28.7779 28.8138 30.9399 29.7542 31.5881C30.1875 31.0157 30.5104 28.31 30.3003 26.685C31.2249 28.3587 32.2511 29.9084 33.1113 29.9C33.501 29.8962 33.9338 29.5771 34.1951 29.4964C32.8467 28.9523 31.9313 26.4696 31.1032 24.9237C32.6571 27.3571 34.5016 28.4531 35.3716 28.618C35.4027 27.8654 35.5693 25.76 33.6344 22.8428C37.0923 24.6733 37.827 23.4911 38.0295 22.8606C36.4691 23.4044 34.3646 21.3986 32.955 20.761L32.936 20.7052C34.9984 21.6465 37.0221 21.9709 38.2815 21.1773C37.205 19.5161 36.1624 18.9109 35.0293 18.4841C37.2682 18.7327 38.0022 17.971 38.0485 17.1372C37.2314 17.4133 36.4755 17.4564 35.5014 17.3006C37.644 16.8689 38.0304 15.9599 38.0093 15.869C37.4604 15.4425 36.4241 14.9623 35.4879 14.8742C38.0714 13.9459 37.2502 13.0707 37.1542 12.796C36.3508 13.549 34.9507 14.0862 34.7032 14.0638C35.9092 13.435 36.9549 11.7897 36.8871 11.6038C36.2846 11.2938 35.0369 11.309 34.5354 11.4605C35.0372 10.9101 35.696 9.96785 35.0882 9.1841C34.5037 10.0102 33.9479 10.4496 33.3927 10.8809C33.8966 10.2435 34.4818 9.51233 34.6823 8.01559C33.9277 8.11443 33.2438 8.04043 32.2645 8.68708C32.8265 7.9851 33.1723 7.29429 33.2407 6.45772C29.866 6.69454 25.9213 8.46377 24.0178 12.8748C23.4653 14.1706 23.8964 16.3761 25.633 16.1246C25.907 17.2375 25.1707 17.9175 23.5706 17.8684C23.5368 17.4959 23.6535 16.7578 23.1947 16.3691C23.5834 16.344 23.6595 16.144 23.7408 15.9743C22.6964 15.7332 22.8656 15.3867 23.0602 13.5312C23.1975 13.5882 23.3541 13.5552 23.4729 13.4453C23.0414 13.0475 23.184 12.3115 23.4017 9.99285C23.4454 8.98231 23.2373 8.47646 23.0155 8.30208C23.1492 8.23422 23.2368 8.12438 23.1678 7.87235C23.6509 7.78751 23.4463 7.19803 23.2474 7.00691C23.1504 7.2697 22.7364 7.36668 22.344 7.07542C22.8184 6.85914 22.8227 6.32103 22.4603 5.94727L22.4603 5.94735ZM24.4123 30.8653C24.4283 30.8846 24.4449 30.9028 24.4617 30.9206C24.4449 30.9038 24.4282 30.8865 24.4115 30.8684C24.4117 30.8673 24.4119 30.8662 24.4124 30.8653L24.4123 30.8653ZM14.5364 30.9369C14.4897 31.1118 14.5728 31.5901 14.5827 31.9083C14.7427 31.987 15.025 31.9055 15.3488 31.7821C15.3312 31.7897 15.314 31.7971 15.2966 31.8047C15.053 31.8949 14.7627 31.9873 14.5804 31.9138L14.5234 31.202C14.5113 31.1216 14.5125 31.0348 14.5349 30.9373C14.5354 30.9371 14.5359 30.9371 14.5364 30.9368L14.5364 30.9369ZM14.4173 30.9701C14.3905 30.978 14.3632 30.9848 14.335 30.9907C14.3622 30.9843 14.3894 30.9776 14.4173 30.9701ZM24.6165 31.0571C24.9732 31.318 25.4136 31.3253 25.576 31.2863C25.5852 31.266 25.5933 31.2454 25.6006 31.225C25.5948 31.248 25.5883 31.2713 25.5812 31.295C25.2451 31.3462 24.9209 31.2908 24.6165 31.0571ZM12.3233 37.0093C12.3233 37.0095 12.3233 37.0097 12.3233 37.0102L12.3225 37.0097C12.3228 37.0095 12.323 37.0095 12.3233 37.0093ZM21.473 37.4054C21.8084 37.7574 23.1018 38.7143 24.6022 38.2517C24.7269 39.0997 24.0065 39.419 23.4377 39.3031C22.8817 39.1899 22.0456 38.7462 21.473 37.4054ZM18.4918 37.6222C18.005 38.5485 17.1981 39.3318 16.4797 39.5203C15.7613 39.7089 15.092 39.3517 15.3528 38.4191C16.904 38.9385 18.1645 38.0199 18.4918 37.6222Z" fill="white"/>
<path id="path3362" fill-rule="evenodd" clip-rule="evenodd" d="M11.3359 20.4545C10.8122 19.8358 10.8889 19.4446 10.9054 19.2262C10.3275 18.79 10.4794 18.6177 10.3799 18.4412C10.5804 18.7946 10.7809 19.0286 10.9814 19.0616C11.3634 19.4117 11.7454 19.5294 12.1273 19.7581C9.79138 18.4812 10.4352 16.9148 10.4622 16.4659C10.0972 16.478 9.82914 16.4029 9.63286 16.2633C9.70012 15.6301 10.0324 15.1155 10.7408 14.7691C10.6522 14.7998 10.5635 14.842 10.4749 14.8578C10.3918 14.8404 10.1902 14.3185 10.4432 13.9777C10.5886 13.8856 10.9817 13.8532 11.3803 14.0094C11.6159 13.5351 11.9211 13.1129 12.5579 12.9394C12.7151 13.1019 12.9808 13.5861 12.7921 14.4272C13.0534 14.524 13.3089 14.6459 13.5202 14.959C13.4548 15.2263 13.3894 15.3016 13.3239 15.3706C14.3454 15.3812 14.4449 13.9476 13.306 13.7967C13.4903 12.447 11.7597 11.6416 11.0067 13.3066C9.62096 12.9349 9.24902 14.0145 9.77215 14.8578C9.60308 14.9814 8.23211 15.9925 9.53789 17.4408C9.53527 18.1542 9.71651 18.8473 10.6838 19.4541C10.9618 20.272 11.1377 20.2739 11.3359 20.4545Z" fill="#DFDDE2"/>
<path id="path3364" fill-rule="evenodd" clip-rule="evenodd" d="M28.5117 12.9193L28.6961 12.5694C29.9434 12.3748 30.6973 13.2093 30.2091 14.1959C31.2161 15.0572 30.6622 16.176 30.0531 16.3993C30.7803 15.8651 30.3802 15.7001 30.2564 15.7089C30.2953 15.6911 30.3563 15.6573 30.4077 15.6144C30.3676 15.1437 30.1827 14.6982 29.4574 14.1629C29.8157 13.7661 29.7796 13.3891 29.7316 13.1226C29.3323 13.0187 28.9787 13.0516 28.6678 13.2125L28.5117 12.9193Z" fill="#DFDDE2"/>
<path id="path3366" fill-rule="evenodd" clip-rule="evenodd" d="M26.786 15.3444C26.8436 15.1496 26.8966 14.8368 27.2494 14.5406C27.1389 14.6212 27.0163 14.7201 26.8806 14.8385C26.427 14.6546 26.1361 14.2391 26.0673 13.9874C26.3447 13.6289 27.0051 13.6809 27.0981 13.7037C26.9062 12.9805 27.1549 12.4435 27.3345 12.238C27.9324 12.2931 28.242 12.601 28.4834 12.8763L28.6631 12.5548C28.4998 12.0473 27.9993 11.6652 27.4103 11.7862C26.918 11.8386 26.3593 12.2661 26.5827 13.2687C25.0985 13.8668 25.7304 15.2899 26.786 15.3444Z" fill="#DFDDE2"/>
<path id="path3368" fill-rule="evenodd" clip-rule="evenodd" d="M23.5563 17.8843C23.5017 18.4316 23.3942 18.8306 23.2773 19.2035C25.2945 18.9008 28.2823 18.3812 27.8779 16.1632C27.5107 16.4305 27.1434 16.4794 26.7762 16.4847C26.7135 16.1689 26.6786 15.8331 26.7904 15.3926C26.4572 15.844 26.0638 16.0145 25.6556 16.116C27.4811 16.9307 24.8833 18.3712 23.7974 17.8843H23.5563Z" fill="#F1EEF0"/>
<path id="path3370" fill-rule="evenodd" clip-rule="evenodd" d="M16.2713 18.7148C16.3292 19.3428 16.524 20.1069 16.716 20.8145C16.5882 20.6124 16.2002 19.3821 16.2713 18.7148Z" fill="#E8E6EB"/>
<path id="path3372" fill-rule="evenodd" clip-rule="evenodd" d="M22.2723 18.2666C21.7845 20.1987 23.9348 20.0112 22.4261 18.0293C23.8928 18.9272 22.9311 20.2698 22.8573 20.5702C22.6272 19.5339 21.7197 19.2723 22.2723 18.2666Z" fill="#C3BDC9"/>
<path id="path3374" fill-rule="evenodd" clip-rule="evenodd" d="M12.5559 12.9746L11.8273 15.1148C11.6471 15.0382 11.4794 14.966 11.2451 14.6942C11.2507 13.9528 11.9068 13.0286 12.5559 12.9746Z" fill="white"/>
<path id="path3376" fill-rule="evenodd" clip-rule="evenodd" d="M13.1355 17.1438L11.8232 15.1162C12.0283 15.1116 12.2675 15.1171 12.5526 15.0488C12.9388 15.4108 13.3685 16.3517 13.1355 17.1438Z" fill="#C3BDC9"/>
<path id="path3378" fill-rule="evenodd" clip-rule="evenodd" d="M12.7637 14.4434C13.159 14.5533 13.4332 14.8102 13.4786 14.9707L12.5527 15.0567C12.6413 14.8652 12.7077 14.653 12.7637 14.4434Z" fill="white"/>
<path id="path3380" fill-rule="evenodd" clip-rule="evenodd" d="M10.4692 14.8493C10.2965 14.5998 10.2973 14.0884 10.4762 13.9834L11.2483 14.6958C11.0428 14.7434 10.6691 14.7648 10.4692 14.8493Z" fill="white"/>
<path id="path3382" fill-rule="evenodd" clip-rule="evenodd" d="M9.65332 16.2422L11.8165 15.1258C11.8619 15.098 11.509 14.7633 11.2414 14.6965C10.6638 14.6232 9.70262 15.3461 9.65332 16.2422Z" fill="white"/>
<path id="path3384" fill-rule="evenodd" clip-rule="evenodd" d="M11.4519 16.2451C10.3354 19.4417 15.1449 19.9369 16.4269 20.0323L16.2722 19.2312C13.9464 19.1278 11.7772 18.6146 12.0983 16.8666C11.6781 16.6037 11.588 16.4853 11.4519 16.2451Z" fill="url(#paint0_linear_20_2022)"/>
<path id="path3386" fill-rule="evenodd" clip-rule="evenodd" d="M11.4549 16.2363C11.1977 16.3628 10.8289 16.419 10.4715 16.474C9.54587 20.3511 15.5532 20.6571 16.7035 20.7998C16.5228 20.4417 16.4774 20.2522 16.4256 20.0186C13.377 19.8211 10.5577 18.6792 11.4549 16.2363Z" fill="url(#paint1_linear_20_2022)"/>
<path id="path3388" fill-rule="evenodd" clip-rule="evenodd" d="M27.3447 12.2568C27.6818 12.9518 28.0422 13.7697 28.2965 14.5474C28.442 14.3348 28.5841 14.1216 28.875 13.8766C28.7156 13.1467 28.3515 12.3744 27.3447 12.2568Z" fill="#C3BDC9"/>
<path id="path3390" fill-rule="evenodd" clip-rule="evenodd" d="M27.3459 12.252C27.6855 12.9641 28.0753 13.8168 28.2997 14.5454L27.4804 14.4273C26.9949 13.8997 26.8788 12.8487 27.3459 12.252Z" fill="white"/>
<path id="path3392" fill-rule="evenodd" clip-rule="evenodd" d="M26.0869 13.9843C26.2994 13.7411 26.7522 13.6641 27.1174 13.7269C27.2003 13.9288 27.3335 14.2144 27.4827 14.433L26.0869 13.9843Z" fill="#C3BDC9"/>
<path id="path3395" fill-rule="evenodd" clip-rule="evenodd" d="M29.7087 13.1407L28.873 13.886L29.4156 14.17C29.8529 13.7949 29.7323 13.1353 29.7087 13.1407Z" fill="#C3BDC9"/>
<path id="path3397" fill-rule="evenodd" clip-rule="evenodd" d="M28.8731 13.874C28.7391 13.9018 28.2727 14.5453 28.3032 14.5396L30.3895 15.6035C30.3974 15.2425 30.0654 14.3563 28.8731 13.874Z" fill="#C3BDC9"/>
<path id="path3399" fill-rule="evenodd" clip-rule="evenodd" d="M28.2966 14.5342L26.793 16.4761C27.755 16.4344 28.1409 16.0069 28.4776 15.4756L28.2966 14.5342Z" fill="#C3BDC9"/>
<path id="path3401" fill-rule="evenodd" clip-rule="evenodd" d="M29.7097 13.1409C29.3873 13.0334 28.9616 13.0676 28.665 13.2321C28.7637 13.4407 28.8305 13.698 28.8781 13.884L29.7097 13.1409Z" fill="white"/>
<path id="path3403" fill-rule="evenodd" clip-rule="evenodd" d="M28.2959 14.5361L30.3927 15.6035C30.0092 15.9198 28.7969 15.6248 28.4719 15.4828L28.2959 14.5361Z" fill="white"/>
<path id="path3405" fill-rule="evenodd" clip-rule="evenodd" d="M28.2988 14.5407L27.4774 14.4238C26.5657 14.8058 26.7268 16.3624 26.7959 16.4761L28.2988 14.5407Z" fill="white"/>
<path id="path3407" fill-rule="evenodd" clip-rule="evenodd" d="M27.4701 14.4279L26.0879 13.9824C26.1558 14.3157 26.5629 14.6922 26.8721 14.8185C26.9379 14.7587 27.2428 14.4791 27.4701 14.4279Z" fill="white"/>
<path id="path3409" fill-rule="evenodd" clip-rule="evenodd" d="M28.5 15.4805C28.244 15.8575 28.1647 15.9574 27.8815 16.1493C28.3705 18.3938 25.1461 18.9549 23.2819 19.2167C23.2638 19.5257 23.1659 19.7866 23.0762 20.024C23.4123 20.0004 30.0304 19.8734 28.5 15.4805Z" fill="white"/>
<path id="path3411" fill-rule="evenodd" clip-rule="evenodd" d="M28.5376 15.5098C29.4291 18.7748 26.5136 19.7056 23.0794 20.0169C22.9958 20.22 22.9156 20.4402 22.832 20.6671C27.4934 20.3414 29.9326 18.8347 29.2966 15.6934C28.9973 15.6476 28.7618 15.5806 28.5376 15.5098Z" fill="url(#paint2_linear_20_2022)"/>
<path id="path3413" fill-rule="evenodd" clip-rule="evenodd" d="M6.77776 38.3847C7.1522 38.5575 7.61518 38.44 7.86513 38.3682C7.9994 38.496 7.82385 38.9995 8.22126 39.3661C7.99425 39.4654 6.75146 39.0833 6.77776 38.3847Z" fill="#F6D155"/>
<path id="path3415" fill-rule="evenodd" clip-rule="evenodd" d="M6.24404 35.7021C6.39951 36.1986 6.83924 36.2517 7.01866 36.3548C7.01385 36.5424 6.53286 36.5332 6.51545 37.2122C6.17929 37.1819 5.71149 36.3964 6.24404 35.7021Z" fill="#F6D155"/>
<path id="path3417" fill-rule="evenodd" clip-rule="evenodd" d="M8.74254 39.8046C9.34857 39.9068 9.56809 39.5817 9.70392 39.5635C9.77443 39.7619 10.0453 40.0202 10.3084 40.1553C10.1855 40.6003 8.71624 40.5031 8.74254 39.8046Z" fill="#F6D155"/>
<path id="path3419" fill-rule="evenodd" clip-rule="evenodd" d="M13.4162 38.1455C13.3808 38.0699 12.6846 38.1542 12.5589 38.042C12.4716 38.1498 12.4458 38.5054 12.1826 38.6406C12.3506 38.9446 13.5142 38.844 13.4162 38.1455Z" fill="#F6D155"/>
<path id="path3422" fill-rule="evenodd" clip-rule="evenodd" d="M14.742 31.9481C14.846 31.9358 14.9464 31.9211 15.0315 31.8962C14.6222 32.3884 13.9405 33.2468 13.2556 33.97C12.5689 34.6951 11.944 35.4102 12.1813 36.0588C11.7052 35.5856 12.1279 35.1236 12.7723 34.3617C13.4714 33.5349 14.2601 32.5819 14.742 31.9481ZM13.8805 37.1977C13.8805 37.5349 13.6002 37.8466 12.9245 37.8149C13.686 36.9792 12.1465 36.9277 12.513 36.5867C13.5344 35.9464 13.9565 36.9363 13.8805 37.1977ZM13.1531 37.9326C13.3738 37.979 13.5126 37.7045 13.5612 37.8443C13.6563 38.1206 13.1576 38.1714 13.1531 37.9326ZM7.99923 35.0395C7.8441 35.0333 7.88825 35.6615 6.96726 35.6362C6.95077 35.6319 6.86433 35.6369 6.8157 35.7233C6.70378 35.9334 7.07974 36.3618 7.42231 36.3366C7.72119 36.3146 7.97096 36.1433 8.12586 35.9302C8.19607 35.8908 8.68496 35.6197 8.64462 35.7367C8.07091 36.0168 8.21405 36.194 9.12381 36.2602C9.69754 36.1751 10.1844 35.6785 10.3904 35.5752C9.80418 35.6768 8.5556 35.2866 8.26594 35.2844C8.22486 35.1778 8.14089 35.0903 8.00675 35.0403C8.00419 35.0398 8.0017 35.0396 7.99923 35.0394V35.0395ZM6.96983 38.248C6.95481 38.3005 6.92386 38.3375 6.88417 38.3654C7.04664 38.4688 7.48343 38.4411 7.53187 38.4056C7.48371 38.4045 7.12468 38.3828 6.96983 38.248ZM11.2594 35.6433C10.479 36.0243 9.94231 37.4006 8.00517 37.2197C7.95685 37.3889 7.84931 37.423 7.74955 37.4746C7.3456 37.4692 6.87985 37.5657 6.88455 37.8181C6.89025 38.1238 7.36076 38.3151 7.67595 38.2771C7.99502 38.2386 8.32777 37.9342 8.32806 37.6285C8.32806 37.6284 8.32806 37.6283 8.32806 37.6281C8.33852 37.6033 8.35482 37.5834 8.38821 37.5838C10.5322 37.1205 10.8613 36.0196 11.2594 35.6433V35.6433ZM11.6013 35.6813C11.5163 36.2018 9.82712 37.7548 9.74862 38.2632C9.65893 38.1938 9.52957 38.1439 9.25953 38.158C9.41657 38.9356 8.76718 39.1737 8.59397 39.0404C8.59289 39.3918 9.10446 39.5378 9.43602 39.4741C9.82576 39.3992 10.152 38.8028 9.92589 38.4397C9.9774 37.7966 10.8231 37.6094 11.1771 36.7829C11.4891 36.7797 11.5365 36.2966 11.9242 36.2068C11.8427 35.9562 11.5253 36.2823 11.6013 35.6813ZM6.61198 35.6804C6.66167 35.9881 6.79948 36.1177 7.02817 36.308C6.84409 36.2421 6.66224 36.1906 6.46094 36.0127C6.64572 36.0687 6.50536 35.6321 6.61198 35.6804ZM10.6582 34.8539C11.0159 34.9367 11.4856 34.9694 12.1244 34.9322C11.1953 35.2586 10.7786 35.1477 10.6582 34.8539ZM11.8292 34.2695C11.8307 34.3192 11.754 34.4152 11.6831 34.4766C12.1313 34.4681 12.5684 34.3755 12.8859 34.0211C12.5909 34.1555 12.2564 34.2673 11.8292 34.2695ZM12.4624 33.2453C12.4299 33.3052 12.3131 33.4318 12.2253 33.5237C12.5953 33.5649 13.3335 33.3933 13.6511 33.0389C13.356 33.1733 12.8897 33.2432 12.4624 33.2453ZM13.327 32.261C13.2608 32.3328 13.0425 32.5445 12.9614 32.6128C13.3314 32.654 14.1663 32.3584 14.4838 32.004C14.1887 32.1384 13.7543 32.2588 13.327 32.261ZM14.5158 31.167C14.4931 31.5917 14.35 31.8623 14.1956 32.0425C14.3237 32.0006 14.4518 31.973 14.5799 31.9143C14.5676 31.6795 14.546 31.4019 14.5158 31.167Z" fill="#DFDDE2"/>
<path id="path3424" fill-rule="evenodd" clip-rule="evenodd" d="M26.417 37.7216C26.7856 37.8117 27.2344 37.5708 27.4493 37.5664C27.5495 37.7638 27.5884 37.9786 28.0004 38.1175C27.7285 38.4195 26.7064 38.5194 26.417 37.7216Z" fill="#F6D155"/>
<path id="path3426" fill-rule="evenodd" clip-rule="evenodd" d="M30.5345 39.3941C30.3989 39.528 30.2487 39.6707 29.9912 39.8249C30.4522 40.2443 31.39 39.7734 31.3534 39.3669C31.2696 39.206 30.9993 39.5534 30.5345 39.3941Z" fill="#F6D155"/>
<path id="path3428" fill-rule="evenodd" clip-rule="evenodd" d="M32.3322 37.9233C32.3402 38.4695 32.2698 38.6129 32.208 38.8003C32.4708 38.9792 33.1496 38.5542 33.2209 37.9117C33.1498 37.7592 32.8613 38.0251 32.3322 37.9233Z" fill="#F6D155"/>
<path id="path3430" fill-rule="evenodd" clip-rule="evenodd" d="M33.5781 34.9043C33.3829 34.9535 33.4993 35.6173 33.2754 35.8279C33.4591 35.9299 33.5835 36.1742 33.7178 36.3946C34.1486 36.0683 34.1327 35.1391 33.5781 34.9043Z" fill="#F6D155"/>
<path id="path3432" fill-rule="evenodd" clip-rule="evenodd" d="M26.8865 37.6595C27.0932 37.5971 27.3171 37.4918 27.3988 37.5197C27.5237 37.0791 27.2307 37.3352 26.8865 37.6595ZM26.5954 37.3063C27.0001 37.3022 27.5665 37.3711 27.7054 36.8329C28.3317 37.1338 28.9882 36.5548 28.8425 36.0217C28.8425 36.0217 28.6403 36.9425 27.3445 36.3594C27.0854 36.3215 26.727 36.4853 26.7507 36.662C26.768 36.8877 27.2122 37.0797 26.5954 37.3063ZM30.0223 36.8561C30.3512 37.1893 30.5611 37.498 30.488 37.7487C30.6915 37.4547 30.7111 37.6319 30.7558 37.7448C30.9985 37.932 31.1804 38.4992 30.5734 38.8664C30.8584 38.9437 30.882 39.1979 30.5695 39.2894C30.583 39.5581 31.2999 39.2233 31.3651 39.3321C31.4208 39.3077 31.4393 39.2275 31.4543 39.142C31.5148 39.0597 31.5218 38.9642 31.4582 38.8509C31.9214 38.0807 31.3464 37.6596 30.8567 37.5741C30.5562 37.2603 30.2935 37.0723 30.0223 36.8561ZM30.0456 36.0256C30.5391 36.3378 31.2109 36.5815 31.8463 36.9958C32.4816 36.3627 32.9504 37.4081 32.0403 37.4771C32.2701 37.9003 33.2401 37.8726 33.2124 37.5352C33.8163 36.3908 32.1789 36.1104 31.8541 36.5223C31.3584 36.2427 30.905 35.9288 30.193 35.7966C31.6027 36.4023 31.8448 36.5922 31.5984 36.6251C31.374 36.6549 30.5847 36.2075 30.0456 36.0256ZM30.4791 35.1454C30.8664 34.9764 31.7066 34.9997 31.9325 34.7975C32.3032 34.1226 32.9908 34.3011 33.2096 34.7403C33.3659 34.7388 33.483 34.7728 33.5002 34.8976C33.3561 35.2173 33.4485 35.9998 33.0428 35.8078C33.1169 35.7506 33.0805 35.6934 33.0428 35.6362C32.8703 35.8097 32.8692 35.6119 32.8665 35.5314C32.6068 35.8359 32.4754 35.7857 32.2851 35.741C32.3313 35.7221 32.3518 35.6711 32.3471 35.5886C33.1059 35.2947 32.4475 34.4043 31.8324 35.2359C31.6237 35.2984 30.7971 35.1126 30.4791 35.1454ZM24.4036 30.8711L24.375 30.9616C24.6875 31.245 27.3925 34.2236 28.1966 35.498C28.0763 35.2275 28.1269 35.1156 27.6486 34.545C28.8724 35.231 29.4741 34.6222 29.4022 34.4878C29.3026 34.4995 29.2381 34.5133 29.1843 34.4852C28.0536 35.0622 27.2147 34.1057 26.7147 33.4728C27.347 33.9773 27.763 34.0677 28.4206 34.1066C28.4859 33.9921 28.4946 33.9341 28.5111 33.8684C28.4538 33.8576 28.3987 33.8423 28.3539 33.8064C27.5845 34.097 26.6607 33.5133 25.938 32.5341C26.6257 33.0282 27.1181 32.9803 27.5867 32.9868C27.6592 32.9037 27.7585 32.8312 27.7725 32.7247C27.7065 32.7298 27.6549 32.7058 27.601 32.6866C27.1178 32.8547 25.9341 32.7978 25.3661 31.8051C25.7605 32.0698 26.1989 32.226 26.7576 32.0862C26.8687 32.0009 26.9895 31.9169 27.0149 31.8194C26.3226 31.9947 25.6491 31.9922 25.0326 31.4476C25.208 31.4494 25.3926 31.3867 25.5806 31.2999C25.2171 31.3303 24.8424 31.2928 24.4036 30.8711Z" fill="#DFDDE2"/>
<path id="path3434" fill-rule="evenodd" clip-rule="evenodd" d="M16.0117 9.65185C17.3562 10.3708 18.9055 8.72816 19.9922 9.62062C20.1098 9.62742 20.1254 9.53982 20.1066 9.46476C18.8427 8.33176 17.4967 10.0001 16.0117 9.65185Z" fill="#C3BDC9"/>
<path id="path3436" fill-rule="evenodd" clip-rule="evenodd" d="M15.5215 30.2988L15.4152 30.411C15.2846 31.0012 14.9754 31.4726 14.6172 31.9238C14.9447 31.9769 15.3468 31.7918 15.7359 31.6235C15.4941 31.172 15.4423 30.8713 15.5215 30.2988Z" fill="#C3BDC9"/>
<path id="path3438" fill-rule="evenodd" clip-rule="evenodd" d="M15.8983 29.5126C16.0851 29.8834 16.4413 29.2761 16.6131 29.1123C16.3882 29.915 15.9406 30.7266 16.9181 31.4806C16.4176 31.5313 16.2779 31.7482 16.7418 32.243C15.8361 31.7973 15.3249 31.0582 15.8983 29.5126Z" fill="#DFDDE2"/>
<path id="path3440" fill-rule="evenodd" clip-rule="evenodd" d="M16.6515 29.0741C16.3395 30.6594 16.8539 31.2786 17.3711 31.4281C17.1731 29.715 17.8573 28.4908 18.8054 27.554C18.7419 25.9574 18.518 25.2409 18.3431 24.0898C18.3557 24.623 18.7335 26.083 18.477 27.1038C18.2104 28.165 17.4504 29.1954 16.6515 29.0741Z" fill="#CECAD5"/>
<path id="path3442" fill-rule="evenodd" clip-rule="evenodd" d="M13.501 30.7089C14.4003 30.7689 15.1318 30.4848 15.7263 29.875C15.4002 30.671 14.6593 31.0438 13.5582 30.9329C13.9565 30.8611 13.9666 30.7933 13.501 30.7089Z" fill="#C3BDC9"/>
<path id="path3444" fill-rule="evenodd" clip-rule="evenodd" d="M13.3913 29.7982C13.3055 29.9325 13.2372 29.9969 13.1689 30.061C14.5878 30.2457 15.3789 29.5678 15.9117 28.976C16.6978 29.0209 17.2402 28.5107 17.711 27.9922C17.1812 28.4117 16.6381 28.7573 16.0195 28.6795C15.4119 29.5633 14.5559 29.9745 13.3913 29.7982Z" fill="#C3BDC9"/>
<path id="path3446" fill-rule="evenodd" clip-rule="evenodd" d="M13.9435 28.7201C13.8376 28.9413 13.8039 28.9377 13.748 29.0099C14.2289 29.1098 14.8876 28.923 16.0123 27.9855C17.124 27.9595 17.5894 27.2305 17.906 26.9141C17.315 27.4245 16.7156 27.6952 16.1067 27.7025C15.5169 28.3044 14.871 28.7938 13.9435 28.7201Z" fill="#C3BDC9"/>
<path id="path3448" fill-rule="evenodd" clip-rule="evenodd" d="M14.3145 27.8301L14.1123 28.1468C14.4993 28.1252 15.0088 28.141 16.0935 27.1427C16.9285 26.9665 17.6756 26.3417 18.3309 25.249C17.7863 25.9206 17.2888 26.6405 16.1879 26.7384C15.9072 27.3816 15.1649 27.6498 14.3145 27.8301Z" fill="#C3BDC9"/>
<path id="path3450" fill-rule="evenodd" clip-rule="evenodd" d="M23.4592 29.1514C23.384 29.7276 23.2552 30.2502 23.001 30.6475C23.0282 30.8362 23.0226 31.0248 23.0145 31.2135C23.4035 30.8171 23.6898 29.689 23.4592 29.1514Z" fill="#C3BDC9"/>
<path id="path3452" fill-rule="evenodd" clip-rule="evenodd" d="M24.0253 29.4277C24.4439 30.5149 24.0687 31.961 22.7314 32.2109C23.1449 32.3825 24.3844 31.8169 24.5577 30.1354L25.5753 31.281C25.6302 31.0176 25.6665 30.7515 25.4742 30.3644C24.6691 30.1951 24.4116 29.8786 24.0253 29.4277Z" fill="#C3BDC9"/>
<path id="path3454" fill-rule="evenodd" clip-rule="evenodd" d="M24.6855 29.7783C25.2326 30.0174 26.187 30.3697 27.1453 29.9535C27.289 30.0127 27.4328 30.0583 27.5765 30.0815C27.2509 30.4225 26.3351 30.5046 25.4942 30.3916C26.6521 30.2399 24.8955 30.1072 24.6855 29.7783Z" fill="#C5BDCB"/>
<path id="path3456" fill-rule="evenodd" clip-rule="evenodd" d="M22.7783 27.8369C23.1756 28.1179 23.6212 28.2879 24.1261 28.2817C24.503 28.9978 25.6025 29.1969 26.2219 29.1645C26.2499 29.2623 26.3155 29.3475 26.3971 29.4273C25.8796 29.4295 25.217 29.2612 24.2002 28.6186C23.9265 28.5239 22.9578 28.0736 22.7783 27.8369Z" fill="#C3BDCA"/>
<path id="path3458" fill-rule="evenodd" clip-rule="evenodd" d="M22.5693 26.7656C22.9653 27.0931 23.4022 27.2669 23.8699 27.3249C24.3503 27.8358 24.9149 28.099 25.6558 28.1943L25.8108 28.4638C25.5781 28.4872 24.4512 27.9828 24.0384 27.6012C23.3467 27.4293 22.8277 27.0862 22.5693 26.7656Z" fill="#C3BDC9"/>
<path id="path3460" fill-rule="evenodd" clip-rule="evenodd" d="M22.6572 25.9033C23.1149 26.3522 23.6372 26.5349 24.0589 26.5368C24.3753 26.8685 24.6679 27.2109 25.3326 27.3859C25.3647 27.4766 25.4038 27.5535 25.4539 27.6083C24.9533 27.5997 24.2658 26.9053 24.1802 26.7929C23.5087 26.6966 22.7458 26.3579 22.6572 25.9033Z" fill="#C3BDC9"/>
<path id="path3462" fill-rule="evenodd" clip-rule="evenodd" d="M18.6621 23.8698C18.8072 23.8142 18.8741 23.7325 18.9458 23.6523C19.0667 23.8182 19.2393 23.8547 19.4092 23.8982C19.0862 23.8869 19.0453 24.039 19.2011 24.3048C19.2673 24.411 19.3807 26.0019 19.4092 26.9621C19.4127 27.8516 19.5321 28.4293 19.7118 28.8155C19.0088 28.2234 19.3987 24.6415 18.6621 23.8698Z" fill="#DFDDE2"/>
<path id="path3464" fill-rule="evenodd" clip-rule="evenodd" d="M19.835 23.9361C20.228 23.8993 20.6167 23.8771 21.0832 23.5957L21.2534 23.7943C20.9188 24.5244 20.7304 26.2482 20.5158 27.7943C20.5774 26.8103 20.5974 25.9318 20.5442 25.6855C20.4365 25.13 20.4581 24.792 20.4685 24.7021C20.6808 23.9303 20.0984 24.119 19.835 23.9361Z" fill="#CECAD5"/>
<path id="path3466" fill-rule="evenodd" clip-rule="evenodd" d="M21.4051 23.8789L21.4524 23.9262C20.7895 25.3717 21.4555 28.6859 20.0245 30.3565L19.9961 29.7135C21.0804 28.998 20.8089 25.345 21.4051 23.8789Z" fill="#C3BDC9"/>
<path id="path3468" fill-rule="evenodd" clip-rule="evenodd" d="M19.0125 27.4443C19.0051 29.8115 19.395 30.2594 17.7832 32.2293C18.5341 31.6035 19.3739 29.6875 19.2679 30.7825C19.458 30.4312 19.642 30.082 19.6839 29.7801C19.0623 28.7173 19.0896 28.1019 19.0125 27.4443Z" fill="#C3BDC9"/>
<path id="path3470" fill-rule="evenodd" clip-rule="evenodd" d="M20.3173 30.0547L20.0146 30.414L20.0998 33.5441C20.1383 32.2452 20.2032 31.0516 20.3173 30.0547Z" fill="#C3BDC9"/>
<path id="path3472" fill-rule="evenodd" clip-rule="evenodd" d="M21.0363 27.7842C20.9539 28.2681 20.8993 28.8493 20.7715 29.1743C20.9901 31.6787 21.6713 31.9193 22.2372 32.1436C21.2931 30.8049 21.1066 29.0079 21.0363 27.7842Z" fill="#DFDDE2"/>
<path id="path3474" fill-rule="evenodd" clip-rule="evenodd" d="M19.2204 31.0664C18.9277 31.7281 19.0244 32.9989 18.1991 33.8277C18.8836 33.4769 19.1436 32.6265 19.1636 31.9648L19.2298 32.6646C19.0027 34.0989 18.3514 34.4895 17.8965 34.5748C17.9686 34.5548 18.6827 34.7056 19.3386 33.2509C19.3601 33.7793 18.989 34.3676 18.5064 34.5653C18.9283 34.5794 19.3465 34.1918 19.5608 33.8939C19.2145 32.8711 19.2081 31.9655 19.2204 31.0664Z" fill="#E0DEE2"/>
<path id="path3476" fill-rule="evenodd" clip-rule="evenodd" d="M19.5371 33.2177C19.6078 33.5613 19.7083 34.0621 20.095 34.5464L20.1234 35.1516C20.3008 34.9189 20.9856 32.9795 20.9981 32.3431C21.0237 32.1414 21.0349 31.9071 21.1825 32.0593C21.2014 32.0734 21.2204 32.0737 21.2393 32.0499C21.0318 31.9081 20.8131 31.2078 20.6482 30.9766C20.7713 31.7339 20.8674 32.8064 20.095 34.4045C19.862 34.1266 19.6956 33.682 19.5371 33.2177Z" fill="#C3BDC9"/>
<path id="path3478" fill-rule="evenodd" clip-rule="evenodd" d="M22.8406 34.4484C22.0084 34.8759 21.292 33.8449 20.9482 33.2047L21.1026 32.3305C21.106 32.3016 21.1675 32.28 21.1951 32.3189C21.3322 33.2812 21.941 34.4043 22.8406 34.4484Z" fill="#DFDDE2"/>
<path id="path3480" fill-rule="evenodd" clip-rule="evenodd" d="M20.7998 33.5391L20.71 33.8039C21.031 34.5157 21.4091 34.7632 21.9015 34.9433C20.9344 34.467 20.8688 34.0031 20.7998 33.5391Z" fill="#DFDDE1"/>
<path id="path3482" fill-rule="evenodd" clip-rule="evenodd" d="M19.873 34.7588L20.1284 35.1985L20.3222 34.7682C20.2859 35.9285 20.2104 37.33 20.1757 38.6216C20.0691 37.3262 19.9234 35.9756 19.873 34.7588Z" fill="#DFDDE2"/>
<path id="path3484" fill-rule="evenodd" clip-rule="evenodd" d="M20.62 34.0352C20.5964 34.1014 20.5727 34.164 20.5491 34.2053C21.4073 37.3885 20.3972 39.0859 20.1708 39.3355C19.5761 38.28 19.5829 37.2407 19.4521 36.352C19.5288 37.149 19.4416 38.1851 20.133 39.4772L20.1425 40.0021C20.9851 38.9518 21.4971 37.494 20.8422 34.333C20.7477 34.2542 20.6922 34.1363 20.62 34.0352Z" fill="#C3BDC9"/>
<path id="path3486" fill-rule="evenodd" clip-rule="evenodd" d="M19.8584 39.7142C19.9303 39.8296 19.9927 39.9466 20.1374 40.0499C20.3237 39.8553 20.3639 39.7581 20.4447 39.6338C20.2876 40.4784 20.2163 41.3017 20.1043 42.1351C20.027 41.311 19.9698 40.413 19.8584 39.7142Z" fill="#DFDDE2"/>
<path id="path3488" fill-rule="evenodd" clip-rule="evenodd" d="M21.3669 39.8509C21.185 39.4444 20.9697 39.0949 21.1069 38.6452C21.0806 38.5065 21.023 38.4853 20.9603 38.4561C20.922 38.6961 20.8369 38.8665 20.7617 39.0328C21.084 40.9671 20.6264 42.0078 20.095 42.8816C19.224 41.709 19.3859 40.4452 19.3716 39.3638C19.1178 41.5591 19.6481 42.5247 20.0856 43.0235L20.0903 43.5577C21.3309 41.7349 21.2086 40.0422 20.9319 39.2362C21.0691 39.4463 21.1943 39.6644 21.3669 39.8509Z" fill="#C3BDC9"/>
<path id="path3490" fill-rule="evenodd" clip-rule="evenodd" d="M16.667 34.3003C16.8333 35.8951 18.8578 35.4119 19.6789 34.2058L19.6032 33.9883C18.8377 34.9804 17.2055 35.8623 16.667 34.3003Z" fill="#C4BEC9"/>
<path id="path3492" fill-rule="evenodd" clip-rule="evenodd" d="M19.4901 34.8867C18.7474 36.4279 17.8529 37.5252 16.6201 37.6338C17.46 37.7008 18.3594 37.0186 18.6391 36.7212C18.841 36.3707 19.1027 36.2459 18.8471 36.7165C18.748 36.8817 18.6493 37.0024 18.4925 37.1515C18.6911 37.071 19.1024 36.4361 19.1875 36.3809C19.2225 35.7134 19.3735 35.3442 19.4901 34.8867Z" fill="#DFDDE2"/>
<path id="path3494" fill-rule="evenodd" clip-rule="evenodd" d="M19.1836 36.4346C19.1692 36.6103 19.1538 36.7883 19.1568 36.9294C17.9863 38.1318 16.975 38.5126 15.9004 38.2601C16.7876 38.284 17.8159 38.3783 19.1836 36.4346Z" fill="#C3BECA"/>
<path id="path3496" fill-rule="evenodd" clip-rule="evenodd" d="M15.3916 37.1297C15.1338 36.4904 15.2304 35.9749 15.6859 35.5851C14.7672 35.5658 13.7712 37.2745 15.4719 38.1395C14.6208 37.6423 14.5778 36.605 14.8555 36.2643C15.0409 35.9683 15.3138 35.8855 15.1242 36.2171C14.9926 36.7506 15.2319 37.0229 15.3916 37.1297Z" fill="#DFDDE2"/>
<path id="path3498" fill-rule="evenodd" clip-rule="evenodd" d="M20.8955 34.4287C21.0694 34.7073 21.2835 34.9457 21.5642 35.1174C21.4878 36.6772 23.2035 37.7112 24.3659 37.2705C23.6981 37.7592 21.4974 37.6401 20.8955 34.4287Z" fill="#DFDDE2"/>
<path id="path3500" fill-rule="evenodd" clip-rule="evenodd" d="M21.1494 36.3877V36.5749C21.9548 37.9159 23.3096 37.9647 23.7238 37.9122C22.4589 37.8883 21.6666 37.3017 21.1494 36.3877Z" fill="#C4C0CD"/>
<path id="path3502" fill-rule="evenodd" clip-rule="evenodd" d="M24.6596 35.4121C25.7278 36.153 25.4328 37.3053 24.2852 37.7858C25.1682 37.2047 25.602 36.452 24.6596 35.4121Z" fill="#E1DFE3"/>
<path id="path3504" fill-rule="evenodd" clip-rule="evenodd" d="M23.4092 38.1127C24.424 38.298 26.141 37.5016 25.2213 35.7256C26.1516 36.8059 25.1111 38.7465 23.4092 38.1127Z" fill="#C3BDC9"/>
<path id="path3506" fill-rule="evenodd" clip-rule="evenodd" d="M21.1563 37.458C21.1475 37.5585 21.1421 37.6207 21.1162 37.7857C21.985 39.5195 22.4701 39.6337 23.0353 40.0859C21.9826 39.2992 21.4445 38.4047 21.1563 37.458Z" fill="#E0DEE3"/>
<path id="path3508" fill-rule="evenodd" clip-rule="evenodd" d="M22.5801 40.7143C22.7639 40.7959 22.9061 40.7361 23.0548 40.7879C24.3832 41.2506 26.0273 40.4616 25.5356 38.8555C26.4049 39.7025 24.8056 42.1357 22.5801 40.7143Z" fill="#C4BECB"/>
<path id="path3510" fill-rule="evenodd" clip-rule="evenodd" d="M24.9137 38.3877C25.92 39.3854 24.8864 40.7654 23.543 40.2934C24.9666 40.4855 25.4932 39.3053 24.9137 38.3877Z" fill="#C3BECA"/>
<path id="path3512" fill-rule="evenodd" clip-rule="evenodd" d="M15.1443 38.3809C13.768 39.2869 14.5281 40.409 15.1643 40.6677C14.9223 40.4893 14.6642 39.8638 15.4184 40.213C15.6666 40.3195 15.8877 40.3308 16.1005 40.3133C14.6921 39.8507 15.005 39.1014 15.1443 38.3809Z" fill="#DFDDE2"/>
<path id="path3514" fill-rule="evenodd" clip-rule="evenodd" d="M19.1699 37.1172C19.2031 37.5886 19.2548 37.9676 19.3237 38.2606C18.8816 39.1439 18.348 39.7328 17.7991 40.153C18.4431 39.5299 18.9401 38.9058 19.1565 38.2472C18.0354 39.9968 17.2583 40.2658 16.4551 40.3067C17.4541 40.0866 18.9132 39.2239 19.1699 37.1172Z" fill="#DFDDE2"/>
<path id="path3516" fill-rule="evenodd" clip-rule="evenodd" d="M19.3371 38.3271C19.3678 38.4686 19.401 38.6085 19.4842 38.7149C18.0718 41.4386 16.1846 41.3602 15.5391 41.1355C16.7619 41.262 16.3364 41.0412 15.9403 40.9684C17.3895 41.0148 18.6694 40.0312 19.3371 38.3271Z" fill="#C3BEC9"/>
<path id="path3518" fill-rule="evenodd" clip-rule="evenodd" d="M18.1738 23.3338C18.3562 23.2107 18.4429 23.0636 18.5487 22.915C18.5878 22.9895 18.6611 23.0542 18.7534 23.1198C18.4861 23.2072 18.3926 23.601 18.2422 23.603C18.2183 23.5156 18.2176 23.4214 18.1738 23.3338Z" fill="#C4BECA"/>
<path id="path3520" fill-rule="evenodd" clip-rule="evenodd" d="M18.7686 23.1253C19.1686 23.2757 19.5773 23.2563 20.0825 22.9014C20.1272 22.9477 20.191 23.0035 20.253 23.0585C19.7705 23.4024 18.9806 23.314 18.7686 23.1253Z" fill="#C3BDC9"/>
<path id="path3522" fill-rule="evenodd" clip-rule="evenodd" d="M20.4775 23.1215C20.7616 23.1695 21.0399 23.2339 21.4103 23.0312C21.4638 23.1023 21.5173 23.1583 21.5708 23.2118C21.4498 23.3331 20.8426 23.3156 20.4775 23.1215Z" fill="#C3BDC9"/>
<path id="path3524" fill-rule="evenodd" clip-rule="evenodd" d="M21.6512 22.3624C21.7426 22.4185 21.9067 22.5827 22.0658 22.6767C21.9477 22.8426 21.8295 23.0312 21.7114 23.2417C21.1844 22.7845 21.5541 22.3028 21.6512 22.3624Z" fill="#C3BDC9"/>
<path id="path3526" fill-rule="evenodd" clip-rule="evenodd" d="M17.8057 22.4932C17.881 22.5985 17.9339 22.6739 17.9829 22.7439C18.305 22.5203 18.4136 22.2796 18.5178 22.0385C18.4706 22.0115 18.4257 21.9728 18.3874 21.9014C18.1334 22.351 17.9735 22.4056 17.8057 22.4932Z" fill="#C3BDC9"/>
<path id="path3528" fill-rule="evenodd" clip-rule="evenodd" d="M18.5417 22.0522L18.5049 22.1224C19.141 22.4872 20.1739 22.7609 21.4871 22.0956L21.3568 21.8281C20.506 22.4941 19.544 22.6064 18.5417 22.0522Z" fill="#C3BDC9"/>
<path id="path3530" fill-rule="evenodd" clip-rule="evenodd" d="M21.5938 22.048C21.9685 21.9773 21.8384 21.5109 22.1855 21.3693C22.7541 22.2245 23.7257 22.0024 24.1213 21.3525L24.1848 21.834C23.8099 22.0723 23.3122 22.4862 22.4831 22.1015C22.4178 22.2399 22.403 22.4577 22.3995 22.6932C22.0361 22.573 21.7437 22.3817 21.5938 22.048Z" fill="#C3BDC9"/>
<path id="path3532" fill-rule="evenodd" clip-rule="evenodd" d="M22.7443 20.46C22.8886 20.7384 22.7537 21.3726 22.761 21.5799C22.4843 21.542 22.331 21.3163 22.1826 21.1286C22.2118 21.1232 22.2314 21.1149 22.2428 21.0918C22.277 20.9178 22.6003 20.8376 22.7443 20.46Z" fill="#C3BDC9"/>
<path id="path3534" fill-rule="evenodd" clip-rule="evenodd" d="M20.2498 21.2429L20.2197 21.283C20.6557 21.4415 21.5595 21.5211 22.2023 21.0857L22.0887 20.8818C21.6395 21.2659 21.0637 21.446 20.2498 21.2429Z" fill="#C3BECA"/>
<path id="path3536" fill-rule="evenodd" clip-rule="evenodd" d="M19.9958 21.0957C20.0755 21.1583 20.1523 21.2092 20.2232 21.2362C19.6248 21.7836 18.7607 21.6345 17.8895 21.176C17.8984 21.1492 17.8914 21.1225 17.8828 21.0957C18.8892 21.6409 19.5921 21.4866 19.9958 21.0957Z" fill="#C3BDC9"/>
<path id="path3538" fill-rule="evenodd" clip-rule="evenodd" d="M17.8392 21.0918C18.0509 21.4268 17.5135 21.5355 17.5115 22.0346L17.3009 21.7672C17.2921 21.4402 17.7293 21.4927 17.8392 21.0918Z" fill="#C3BEC9"/>
<path id="path3540" fill-rule="evenodd" clip-rule="evenodd" d="M17.2539 21.6676L16.8427 21.0424C16.4097 20.4785 17.8411 20.3663 17.6852 19.3105C17.7766 19.3828 17.868 19.4762 17.9594 19.5246C17.9071 20.3747 17.1626 20.3523 17.1503 20.9354C17.0552 20.8994 17.007 20.8108 16.9831 20.6947C16.9463 20.7225 16.938 20.7253 16.8995 20.7649C16.7191 20.9868 16.9849 21.1125 17.2539 21.6676Z" fill="#C3BEC9"/>
<path id="path3542" fill-rule="evenodd" clip-rule="evenodd" d="M17.6465 20.5219C18.0646 20.5817 18.4757 20.5217 18.8687 20.1484C18.9362 20.2137 18.989 20.2827 19.0791 20.3423C18.578 20.6474 17.9067 20.6889 17.6465 20.5219Z" fill="#C3BDC9"/>
<path id="path3545" fill-rule="evenodd" clip-rule="evenodd" d="M19.0981 20.3569L19.0508 20.3947C19.7445 20.7921 20.7133 20.7893 21.2352 20.4326C21.1613 20.3898 21.098 20.3364 21.0366 20.2812C20.4156 20.7377 19.4806 20.5905 19.0981 20.3569Z" fill="#C4BECA"/>
<path id="path3547" fill-rule="evenodd" clip-rule="evenodd" d="M21.2513 20.4319L21.2158 20.4768C21.7088 20.6683 22.3178 20.6493 22.7454 20.4225C22.7162 20.3413 22.6837 20.2626 22.6295 20.2002C22.1662 20.5653 21.7084 20.5341 21.2513 20.4319Z" fill="#C4BEC9"/>
<path id="path3549" fill-rule="evenodd" clip-rule="evenodd" d="M18.0332 19.5748C18.7571 19.9429 19.5468 19.6981 19.979 19.3174C20.0526 19.4108 20.1261 19.4651 20.1997 19.5147C19.6599 19.9881 18.2714 19.9289 18.0332 19.5748Z" fill="#C4BEC9"/>
<path id="path3551" fill-rule="evenodd" clip-rule="evenodd" d="M20.2262 19.5245L20.1895 19.5579C20.8417 20.0036 21.8376 19.7345 22.1018 19.5612C22.0684 19.4565 22.035 19.3651 22.0015 19.2871C21.5434 19.679 20.8615 19.8074 20.2262 19.5245Z" fill="#C3BDC9"/>
<path id="path3553" fill-rule="evenodd" clip-rule="evenodd" d="M16.2012 18.6014L16.2948 18.6548C16.3942 18.5124 16.4761 18.4781 16.5172 18.5346C16.5582 18.591 16.4828 18.6957 16.589 18.7886C16.9261 18.5205 17.6991 18.3429 17.7926 17.9461C17.9347 18.3434 18.4164 18.3549 18.809 19.0427C18.7161 18.5203 18.1804 18.3775 17.9608 18.0263C17.7412 17.6751 17.8712 17.2359 18.0467 16.6689C17.6824 17.1625 17.9694 17.8633 17.375 18.177C16.9977 18.376 16.278 18.3322 16.2012 18.6014Z" fill="#C3BDC9"/>
<path id="path3555" fill-rule="evenodd" clip-rule="evenodd" d="M19.3242 16.1211L19.3443 16.5892C18.7262 16.8309 19.208 18.3776 18.9632 18.7155C18.8654 17.3957 18.322 16.9207 19.3242 16.1211Z" fill="#C3BDC9"/>
<path id="path3557" fill-rule="evenodd" clip-rule="evenodd" d="M19.8251 17.2441H19.8986C19.9789 18.1089 20.8859 18.1913 21.042 19.0428C20.8492 18.4525 20.3341 18.2804 20.0591 17.9663C19.9009 18.627 19.1031 18.8234 18.9023 19.1966C18.8473 18.8892 20.0029 18.4588 19.8251 17.2441Z" fill="#C3BDC9"/>
<path id="path3559" fill-rule="evenodd" clip-rule="evenodd" d="M21.1963 16.4145C20.721 17.1667 21.6671 17.6507 21.1562 18.9019C21.422 17.2656 20.2795 17.3991 21.0024 16.2139C21.2531 16.4574 22.1119 16.7044 22.1926 17.1166C21.9038 16.7093 21.4591 16.6783 21.1963 16.4145Z" fill="#C3BDC9"/>
<path id="path3561" fill-rule="evenodd" clip-rule="evenodd" d="M22.1856 17.2236C22.275 17.5129 22.3547 17.6279 22.4263 17.8187C22.1658 18.6692 21.1378 18.9654 21.0823 19.2764C20.9045 18.879 22.1919 18.6574 22.1856 17.2236Z" fill="#C3BDC9"/>
<path id="path3563" fill-rule="evenodd" clip-rule="evenodd" d="M23.1616 16.3542C22.9998 16.3199 22.8451 16.3495 22.6668 16.167C22.6971 16.4422 22.6518 16.6038 22.6133 16.7756C22.9501 16.9695 23.1725 18.7746 23.3087 18.855C23.2393 18.0787 23.2706 17.0569 22.8005 16.5014L22.8206 16.4078C22.963 16.4591 23.0726 16.4452 23.1616 16.3542Z" fill="#C3BDC9"/>
<path id="path3565" fill-rule="evenodd" clip-rule="evenodd" d="M16.8564 17.7657C17.1787 17.2827 17.4583 16.7203 17.872 16.4311C18.2856 16.142 18.5457 16.2531 19.3773 15.5725L19.6916 14.75C18.9898 15.7808 18.1616 16.4868 16.9634 16.2411C17.0348 16.2814 17.0745 16.3802 17.5652 16.4083C17.3112 16.6545 17.0929 17.1858 16.8564 17.7657Z" fill="#C3BDC9"/>
<path id="path3567" fill-rule="evenodd" clip-rule="evenodd" d="M16.6826 15.4858C17.3111 15.8007 18.0791 15.9617 19.3974 14.0816C19.6776 14.0049 19.9509 13.8527 20.2132 13.5801C19.3654 15.6172 16.9546 16.8624 16.6826 15.4858Z" fill="#DFDDE2"/>
<path id="path3569" fill-rule="evenodd" clip-rule="evenodd" d="M19.4912 16.6624C20.4969 12.8703 23.5476 10.6048 20.9088 8.58496C22.8224 11.9007 19.7776 13.303 19.4912 16.6624Z" fill="#F1EEF0"/>
<path id="path3571" fill-rule="evenodd" clip-rule="evenodd" d="M18.7617 13.3788C18.8137 14.375 20.0732 13.6363 20.3732 12.9844C19.8632 13.3285 19.3582 13.6391 18.7617 13.3788Z" fill="#DFDDE2"/>
<path id="path3573" fill-rule="evenodd" clip-rule="evenodd" d="M20.6549 11.8345C20.7705 11.6635 20.7922 11.8214 20.9892 11.8679C20.5284 12.8284 19.7486 13.0908 19.3242 13.1116C19.8995 12.8129 20.4281 12.4692 20.6549 11.8345Z" fill="#DFDDE2"/>
<path id="path3575" fill-rule="evenodd" clip-rule="evenodd" d="M20.3457 10.2286L20.445 10.3279C20.5837 10.3221 20.7224 10.3236 20.8611 10.1956C20.8631 10.3163 20.8176 10.3704 20.7571 10.4036C20.8349 11.1022 20.758 11.5096 20.6611 11.8212C20.7822 11.6984 20.881 11.8747 20.9901 11.8665C21.1642 11.5924 21.462 10.6394 20.984 9.8125C20.9974 10.05 20.7411 10.2946 20.3457 10.2286Z" fill="#C3BDC9"/>
<path id="path3577" fill-rule="evenodd" clip-rule="evenodd" d="M18.7051 9.92502C19.468 9.61444 19.904 10.1609 20.2464 10.2126C20.7907 11.0135 20.2267 11.7107 19.8619 12.1384C20.1043 11.7234 20.4593 10.057 18.7051 9.92502Z" fill="#C3BDC9"/>
<path id="path3579" fill-rule="evenodd" clip-rule="evenodd" d="M19.3906 17.1037C20.2214 17.4931 20.6081 16.5479 21.0021 16.181C20.8058 15.7314 20.8624 15.3623 20.8483 14.9707C20.1265 15.3631 20.1467 16.787 19.3906 17.1037Z" fill="#CECAD5"/>
<path id="path3581" fill-rule="evenodd" clip-rule="evenodd" d="M22.2292 10.417C22.1611 10.4483 22.1551 10.7159 22.0621 10.7112C22.0042 12.6231 20.2645 13.6859 19.8555 16.4484C20.1093 16.1524 20.2919 14.9869 20.9451 13.9157C21.6268 12.7977 22.2964 12.1702 22.2292 10.417Z" fill="#CECAD5"/>
<path id="path3583" fill-rule="evenodd" clip-rule="evenodd" d="M21.3384 14.0303C20.645 15.8983 22.0188 15.9135 22.1374 16.522C20.7137 16.0438 20.6139 15.006 21.3384 14.0303Z" fill="#DFDDE2"/>
<path id="path3585" fill-rule="evenodd" clip-rule="evenodd" d="M21.5939 8.67285C23.897 10.1704 21.9212 13.193 21.0596 14.0062C21.4005 13.2427 23.4768 11.1411 21.5939 8.67285Z" fill="#DFDDE2"/>
<path id="path3587" fill-rule="evenodd" clip-rule="evenodd" d="M22.3691 7.8457C22.6052 8.2785 22.9848 8.96034 22.4258 8.82446C23.4055 10.9991 22.3309 12.1168 21.7916 13.326C20.6548 16.288 22.5366 15.1134 22.3171 17.1792C22.9571 16.4321 22.1242 15.3479 22.1602 14.9744C22.1141 14.4318 22.4563 13.2595 22.5677 12.5503C22.7042 12.9414 22.9137 13.1784 23.1634 13.3304C22.7237 11.7906 24.0974 8.75546 22.3691 7.8457Z" fill="#CECAD5"/>
<path id="path3589" fill-rule="evenodd" clip-rule="evenodd" d="M22.5965 12.9424C22.707 13.0957 22.7852 13.2705 22.9653 13.3775C23.0576 13.9801 22.2116 15.8908 23.4854 16.0347C22.449 16.5516 21.8844 15.0683 22.5965 12.9424Z" fill="#CECAD5"/>
<path id="path3591" fill-rule="evenodd" clip-rule="evenodd" d="M22.0391 7.24785C22.2557 7.26329 22.7733 7.62661 23.256 7.24121C23.5877 7.69213 22.9699 8.07381 22.3203 7.73637C22.1507 7.62766 22.6885 7.57728 22.0391 7.24785Z" fill="#C3BDC9"/>
<path id="path3593" fill-rule="evenodd" clip-rule="evenodd" d="M18.1943 7.41113C18.3892 7.62733 18.5881 7.73928 18.7712 8.26218C18.9067 8.26363 19.0423 8.27973 19.1778 8.31896C18.9493 7.95669 18.6727 7.62337 18.1943 7.41113Z" fill="#DFDDE2"/>
<path id="path3595" fill-rule="evenodd" clip-rule="evenodd" d="M20.2891 6.78247C22.2934 7.31662 22.1047 6.38663 22.464 6.25293C22.8198 6.82186 21.8427 7.55999 20.2891 6.78247Z" fill="#C3BDC9"/>
<path id="path3597" fill-rule="evenodd" clip-rule="evenodd" d="M17.8403 7.17883C17.7269 7.13992 17.6223 7.14704 17.5566 7.15521C17.735 5.71914 19.327 6.63109 20.1855 7.16944C19.1019 6.65034 17.7436 5.9905 17.8403 7.17883Z" fill="#C3BEC9"/>
<path id="path3599" fill-rule="evenodd" clip-rule="evenodd" d="M17.8443 7.17886C17.7551 5.54616 20.1079 7.41115 21.1966 7.47675C20.4389 7.56265 17.9434 5.90173 17.9577 7.20725L17.8443 7.17886Z" fill="#F1EEF0"/>
<path id="path3601" fill-rule="evenodd" clip-rule="evenodd" d="M17.9961 7.22621L18.1947 7.30183C18.2142 7.15908 18.2686 6.99481 18.3412 6.98032C18.8032 6.88861 18.3701 7.13141 18.4453 7.20728C18.5324 7.26875 18.6294 7.33022 18.729 7.39169C18.7337 7.3223 18.7384 7.24044 18.7431 7.14581C18.7511 6.77391 19.8186 7.37277 20.5682 7.61865C20.651 7.84035 20.1523 8.11866 19.7597 8.03948C20.1165 8.3216 20.8689 8.18458 21.1924 7.72267C21.7686 7.76642 21.8957 7.67211 22.0245 7.52879C21.584 7.43747 21.3807 7.65415 20.2768 7.34923C19.2628 7.05838 18.0244 6.1939 17.9961 7.22621Z" fill="#C3BDC9"/>
<path id="path3603" fill-rule="evenodd" clip-rule="evenodd" d="M18.9136 7.04207C19.038 7.03018 19.1516 7.07216 19.2635 7.12247C19.0387 7.47043 19.3681 7.80236 19.5519 7.75133C19.6142 7.80803 19.6776 7.86481 19.8876 7.92151C19.5909 7.98346 18.5985 7.67765 18.9136 7.04207Z" fill="#B6B1BF"/>
<path id="path3665" fill-rule="evenodd" clip-rule="evenodd" d="M16.2894 9.05158C15.1772 6.912 18.3948 6.53422 18.7207 8.30447C18.7207 8.30447 19.5188 8.33667 20.2232 8.71115C21.5961 9.7073 20.7622 10.2773 20.4856 10.2315C19.8458 10.2427 19.7256 9.62827 18.7919 9.86291C18.5673 9.94671 18.5552 10.0621 18.4549 10.0587C17.8982 9.91719 18.919 8.79923 20.0152 9.60474C20.1129 9.67656 20.3264 9.53623 20.1381 9.32577C19.4031 8.58384 18.1291 8.99157 17.8497 9.06105C17.4938 8.48395 16.7067 8.61603 16.2894 9.05158Z" fill="#F6D155"/>
<path id="path3605" fill-rule="evenodd" clip-rule="evenodd" d="M19.4806 7.30664C19.6205 7.41826 20.3294 7.53335 20.3458 7.59976C20.1187 8.13545 19.377 7.97012 19.4806 7.30664Z" fill="#AAA3B5"/>
<path id="path3607" fill-rule="evenodd" clip-rule="evenodd" d="M24.2319 21.8048C24.2269 21.8145 24.2161 21.8202 24.2319 21.8449C24.4007 21.9282 24.6094 21.9783 24.8538 21.9986L25.4355 25.4289C25.3912 24.5363 25.329 23.6139 25.3085 22.7609C25.2434 22.5971 25.1956 22.2951 25.148 21.9919C25.2215 21.9841 25.2951 21.9723 25.3687 21.9518C25.7371 24.1199 26.6382 24.5563 26.813 24.7268C26.3363 24.2254 25.6924 23.5203 25.4823 21.905C25.8017 21.7269 25.9472 21.5107 26.0507 21.4771C26.0827 21.3855 26.0623 21.1668 26.0173 21.0625C25.6964 21.3691 25.4067 21.7299 24.7602 21.6777C24.7168 21.6742 24.7602 21.7379 24.7602 21.7379C25.0103 22.0727 24.5046 21.8674 24.2319 21.8048Z" fill="#C3BDC9"/>
<path id="path3609" fill-rule="evenodd" clip-rule="evenodd" d="M25.4756 25.7964L25.5023 26.3179C25.825 26.1097 26.1277 26.0457 26.5588 25.0541C26.7349 26.8119 26.7574 28.5207 27.7825 28.8723C27.2528 27.6644 27.2518 26.3381 27.2141 25.0608C27.1517 25.1412 27.0893 25.1991 27.0269 25.2547C26.6053 25.0107 26.4759 24.8154 26.2512 24.5928C26.1101 25.0308 26.0395 25.4911 25.4756 25.7964Z" fill="#CECAD5"/>
<path id="path3611" fill-rule="evenodd" clip-rule="evenodd" d="M26.2373 21.5479C26.379 21.6002 26.5386 21.6166 26.7054 21.6188L26.8851 24.172L26.2373 21.5479Z" fill="#DFDDE2"/>
<path id="path3613" fill-rule="evenodd" clip-rule="evenodd" d="M27.4522 21.3642L27.5373 21.3027C27.7454 21.7716 28.0262 22.1859 28.4357 22.5037L29.5373 29.9175L27.9439 22.4847C27.9362 23.765 27.5823 24.6144 27.0078 25.1893L26.9463 24.7023C27.5498 23.8812 27.9128 22.8989 27.4522 21.3642Z" fill="#C3BDC9"/>
<path id="path3615" fill-rule="evenodd" clip-rule="evenodd" d="M29.1352 23.0664C29.3023 23.1673 29.4946 23.2492 29.7121 23.3122C30.3808 25.5487 30.6333 29.9574 29.7546 31.5535L29.679 30.9483C28.141 29.7728 27.7578 26.4974 27.4473 24.6645L27.4945 24.5747C27.7912 26.2491 28.1411 29.473 29.6459 30.7828C29.917 29.9254 30.5025 27.4529 29.452 23.3311C29.3745 23.2429 29.2478 23.1546 29.1352 23.0664Z" fill="#C4BEC9"/>
<path id="path3617" fill-rule="evenodd" clip-rule="evenodd" d="M28.1943 20.6828C28.3267 20.6666 28.3997 20.6758 28.6104 20.626L30.0762 22.8151L28.1943 20.6828Z" fill="#DFDDE2"/>
<path id="path3619" fill-rule="evenodd" clip-rule="evenodd" d="M29.7695 23.3311C29.9819 23.4037 30.2517 23.4648 30.526 23.5249C30.5342 23.5917 32.6704 29.0848 34.162 29.5061C32.2551 29.8849 31.2971 26.5401 30.0532 24.5652C29.9647 24.1477 29.8707 23.7359 29.7695 23.3311Z" fill="#DFDDE2"/>
<path id="path3621" fill-rule="evenodd" clip-rule="evenodd" d="M29.521 20.0254C29.5028 20.054 29.4846 20.0827 29.4541 20.0989C30.3231 21.445 30.3443 22.2651 30.2298 23.001L30.5842 23.4623C30.7607 22.4328 30.57 21.6733 30.3234 20.9548L34.6497 27.2403L30.8249 21.122L31.634 21.2357C30.9595 21.0094 30.277 20.9319 29.521 20.0254Z" fill="#C3BDC9"/>
<path id="path3623" fill-rule="evenodd" clip-rule="evenodd" d="M32.1284 21.2506C32.2936 21.2519 32.4421 21.2421 32.554 21.208C33.4111 22.6047 35.6207 25.1422 35.3625 28.5935L35.093 28.0686C33.0429 27.5951 31.6169 25.0191 30.8896 23.9739C32.09 25.5565 33.4501 27.6208 35.041 27.9457C35.1726 25.3692 33.2291 22.8417 32.1284 21.2506Z" fill="#C3BDC9"/>
<path id="path3625" fill-rule="evenodd" clip-rule="evenodd" d="M32.5771 21.203L32.6507 21.3301C34.5475 22.3397 36.6755 24.3397 37.9934 22.8681C36.6275 23.4168 34.4151 21.4897 32.9583 20.7617L33.0252 21.076C32.864 21.1538 32.721 21.1771 32.5771 21.203Z" fill="#DFDDE2"/>
<path id="path3627" fill-rule="evenodd" clip-rule="evenodd" d="M29.8884 18.842C29.8934 18.8961 29.8877 18.9395 29.875 18.9758L32.2354 20.4402L30.0823 18.7217C30.0304 18.7768 29.9579 18.8046 29.8884 18.842Z" fill="#DFDDE2"/>
<path id="path3629" fill-rule="evenodd" clip-rule="evenodd" d="M32.8281 20.2197C32.8693 20.3771 32.917 20.5281 32.9416 20.702C35.765 22.008 37.4571 21.6863 38.275 21.1748L37.84 21.0141C36.5972 21.8364 33.5897 20.7257 32.8281 20.2197Z" fill="#C3BDC9"/>
<path id="path3631" fill-rule="evenodd" clip-rule="evenodd" d="M30.587 17.9874C30.5868 18.0252 30.5722 18.063 30.5586 18.1008C31.7572 18.7331 32.5963 19.9072 32.5634 20.7155L32.97 21.0513C32.8134 19.6998 32.3287 19.1943 31.8399 18.6919L37.5753 20.9378L32.0054 18.3278C32.7482 18.1591 33.5227 18.1169 34.1615 17.3444L35.4759 17.297C36.597 17.125 37.8714 16.4761 38.0008 15.8691L37.58 15.9164C37.0418 17.106 34.9209 17.0652 33.8211 17.1079C33.3115 18.0638 31.6901 18.1349 30.587 17.9874Z" fill="#C3BDC9"/>
<path id="path3633" fill-rule="evenodd" clip-rule="evenodd" d="M33.7929 17.7282C33.6499 17.8431 33.4994 17.9285 33.3438 17.9929C33.9433 18.1198 34.5015 18.2822 35.0128 18.4847C36.4961 18.6402 37.9653 18.4139 38.0294 17.1514C37.4061 18.1566 35.6275 17.9713 33.7929 17.7282Z" fill="#DFDDE2"/>
<path id="path3635" fill-rule="evenodd" clip-rule="evenodd" d="M30.5635 16.8438C30.6039 16.9667 30.6197 17.075 30.6439 17.1936L33.6841 17.1133C32.6437 17.0236 31.5802 16.9453 30.5635 16.8438Z" fill="#DFDDE2"/>
<path id="path3637" fill-rule="evenodd" clip-rule="evenodd" d="M32.0293 15.6191C32.6476 15.9009 33.2108 16.2168 33.6653 16.5742L33.2634 16.2054C34.5637 16.0983 35.8863 15.9945 37.3485 15.9123L32.7243 15.8839L32.0293 15.6191Z" fill="#C3BDC9"/>
<path id="path3639" fill-rule="evenodd" clip-rule="evenodd" d="M31.0521 15.7264C31.0382 15.791 31.0035 15.8556 30.9785 15.9203L31.9949 15.6261C33.5158 14.5356 33.588 13.9901 33.7802 13.3994L36.1005 11.9551L33.466 13.2657C32.0351 13.2795 31.6693 13.4778 31.2326 13.5933C32.4454 13.3306 33.2429 13.2855 33.6866 13.4262L33.4058 13.6C33.0399 14.8077 31.6751 15.5112 31.0521 15.7264Z" fill="#C3BDC9"/>
<path id="path3641" fill-rule="evenodd" clip-rule="evenodd" d="M31.041 14.7348C31.0845 14.8116 31.0911 14.9068 31.1119 14.9948C31.8378 14.6064 32.5158 14.1702 33.1923 13.7324C32.4752 14.0843 31.7581 14.4436 31.041 14.7348Z" fill="#DFDDE2"/>
<path id="path3643" fill-rule="evenodd" clip-rule="evenodd" d="M32.998 14.8865C33.8147 14.8174 34.6449 14.7981 35.4993 14.8676C35.6988 14.7553 37.7682 14.1511 37.2676 13.0566C36.6725 14.2553 34.4627 14.6656 34.2888 14.7636C33.9414 14.7989 33.0829 14.8338 32.998 14.8865Z" fill="#DFDDE2"/>
<path id="path3645" fill-rule="evenodd" clip-rule="evenodd" d="M36.4126 11.8031L36.8712 11.6045C36.9202 11.6973 36.5884 12.3208 36.0007 12.9729C35.2333 13.8234 34.7821 14.1919 33.3203 14.4556C33.3489 14.4166 33.3749 14.3775 33.3971 14.3386C34.5274 14.031 36.0825 12.9285 36.4126 11.8031Z" fill="#DFDCE1"/>
<path id="path3647" fill-rule="evenodd" clip-rule="evenodd" d="M31.5513 13.0041L31.4189 13.2123C32.7223 12.273 33.7532 11.6991 34.5396 11.4533C35.3201 10.6284 35.4982 9.81349 35.1731 9.33984C35.2231 10.8646 32.8021 12.0052 31.5513 13.0041Z" fill="#DFDDE2"/>
<path id="path3649" fill-rule="evenodd" clip-rule="evenodd" d="M30.7145 13.5855L30.6672 13.9732C31.6305 13.2701 32.1492 11.9931 32.0147 10.9141L31.6696 11.2686L30.166 12.4886C30.2469 12.5611 30.3357 12.6335 30.393 12.7061L31.6696 11.3065C31.7541 12.4595 30.9773 13.3547 30.7145 13.5855Z" fill="#C3BEC9"/>
<path id="path3651" fill-rule="evenodd" clip-rule="evenodd" d="M32.0244 11.7794L31.9346 12.1009C32.5565 11.7092 32.9925 11.2979 33.3767 10.8811C34.4525 9.63023 34.5926 8.54317 34.6817 8.02051L34.2183 8.39402C34.2932 9.9832 32.5116 11.5145 32.0244 11.7794Z" fill="#DFDDE2"/>
<path id="path3653" fill-rule="evenodd" clip-rule="evenodd" d="M31.4951 10.8857C31.6748 10.8781 31.8545 10.8731 32.0341 10.8904L34.1476 8.46484L31.4951 10.8857Z" fill="#C3BDC9"/>
<path id="path3655" fill-rule="evenodd" clip-rule="evenodd" d="M29.9398 9.50977L29.6797 9.81235C29.7909 10.4084 29.7867 11.2108 28.9043 12.1859L28.9327 12.2379L28.9941 12.219C29.6931 11.3483 30.4285 11.1223 31.1644 10.9046C30.7359 11.0113 30.3086 11.0813 29.8263 11.3301C30.1553 10.3318 30.0088 9.82044 29.9398 9.50977Z" fill="#C3BDC9"/>
<path id="path3657" fill-rule="evenodd" clip-rule="evenodd" d="M30.0389 10.3048L30.0342 10.4987C30.7903 10.0338 31.556 9.46884 32.247 8.69722C32.6506 8.17747 33.1688 7.44864 33.2304 6.45605L32.8333 6.76818C32.7547 8.41842 30.6279 9.83977 30.0389 10.3048Z" fill="#DFDDE2"/>
<path id="path3659" fill-rule="evenodd" clip-rule="evenodd" d="M28.3223 10.092C28.9354 9.8269 29.5338 9.57561 29.9488 9.49634L32.6107 7.02344C31.899 7.53866 30.4028 8.83375 29.6987 9.35924C29.4562 9.54018 29.2128 9.53435 28.3223 10.092Z" fill="#DFDDE2"/>
<path id="path3661" fill-rule="evenodd" clip-rule="evenodd" d="M32.7529 6.78711C26.0226 7.96168 22.2841 16.0813 26.7859 15.3498L26.5353 15.2884C25.6346 15.3678 25.4042 14.583 25.4918 14.0862C25.5716 13.5439 26.0887 13.246 26.2375 13.1949C26.1974 12.7163 26.1819 12.2415 26.6488 11.8415C26.8362 11.3885 27.05 11.1552 27.2635 10.9196C27.9708 8.35801 31.5406 7.08217 32.7529 6.78711Z" fill="#F1EEF0"/>
<path id="path3663" fill-rule="evenodd" clip-rule="evenodd" d="M29.6183 9.79395C28.777 9.91641 27.6238 10.8472 27.4492 11.2359C27.4316 11.2751 27.4588 11.3306 27.1596 11.4913L27.1738 11.5434C27.4626 11.4207 28.2442 11.5383 27.5095 11.723C27.9914 11.7101 28.4107 11.9005 28.6915 12.541C30.2472 12.3041 30.6325 13.4411 30.2424 14.1959C31.2678 15.0849 30.6193 16.2298 30.058 16.4418C30.4 17.2024 30.5807 18.2131 29.5332 18.6025C29.5302 19.2811 29.4366 20.3375 27.831 20.3236C27.6389 20.7806 27.0686 21.5615 26.1005 21.1464C26.1005 21.1464 26.0994 21.1744 26.091 21.2031C26.0753 21.2565 26.4913 21.3608 26.4977 21.3355C26.8276 21.3734 26.8661 21.5891 26.4646 21.4963C26.3189 21.4531 26.19 21.418 26.0863 21.3685C26.0885 21.4032 26.0898 21.4379 26.0674 21.4726C27.1129 21.8338 27.7157 21.2022 28.0438 20.6593C29.2902 20.594 29.8061 19.9069 29.8689 18.8343C30.8897 18.1946 30.746 17.2302 30.4315 16.5647C31.3411 15.8845 31.276 14.6902 30.5875 14.1344C31.0551 12.5655 29.6562 12.1426 28.9185 12.2526C28.6704 11.8345 28.508 11.7738 28.3322 11.6568L29.6514 9.8648L28.0485 11.515C27.8887 11.4602 27.6803 11.4359 27.4197 11.444C27.7593 10.5902 29.0927 9.94326 29.6183 9.79395Z" fill="#C3BDC9"/>
<path id="path3667" fill-rule="evenodd" clip-rule="evenodd" d="M17.3574 7.92174C17.5574 8.22027 17.8929 7.83827 18.4544 8.42765L18.5206 8.39935C18.3943 7.89221 18.0517 7.58356 17.5465 7.5293C17.7618 7.7184 17.6051 7.72956 17.5966 7.8504C17.5892 7.9566 17.5998 8.08665 17.3574 7.92174Z" fill="#DFA12F"/>
<path id="path3669" fill-rule="evenodd" clip-rule="evenodd" d="M16.4687 8.83885C16.7734 8.67328 17.4374 8.42473 17.8588 9.01857C19.1867 8.63017 20.1258 8.9863 20.256 9.51971C20.3384 9.37453 19.9637 8.57121 18.4499 8.70644C17.1568 7.80217 16.4239 8.61981 16.4687 8.83885Z" fill="#DFA12F"/>
<path id="path3671" fill-rule="evenodd" clip-rule="evenodd" d="M18.4922 9.97871C18.2616 9.969 18.9797 9.12046 20.1565 9.93139C20.5784 10.0963 20.7795 9.88133 20.7002 9.53418C20.6722 9.27851 20.5308 9.13624 20.4449 8.93848C21.0367 9.38293 21.1087 9.93099 20.7078 10.1518C20.0846 10.4624 19.6465 9.3568 18.4922 9.97871Z" fill="#DEA12F"/>
<path id="path3673" fill-rule="evenodd" clip-rule="evenodd" d="M17.5182 22.082L17.7778 22.458L17.7062 22.4133C16.9667 22.7668 16.585 22.6283 16.2199 22.467L16.1841 22.4402C15.4244 22.5904 14.9408 22.391 14.5366 22.0909C14.5652 22.3171 14.7237 22.4912 14.9306 22.6461L14.1337 26.138L14.5187 22.861C14.0617 24.1409 13.4634 24.7393 12.6384 25.0993L12.7011 24.7412C13.4549 24.3558 14.0993 23.6256 14.4023 22.0462C14.1019 22.0861 13.8011 22.1231 13.489 22.0462L12.7369 24.6338L13.0951 21.9567C12.7683 21.7402 12.4946 21.4708 12.2266 21.1955V21.1508C12.3072 21.2656 12.3905 20.9172 12.3788 20.8105C12.9409 21.7263 13.742 21.8976 14.5187 21.6343C14.5157 21.7209 14.52 21.7978 14.4829 21.9298L14.5187 21.9208C14.5512 21.9188 14.5646 21.8378 14.5858 21.7686C14.5628 21.7528 14.5571 21.7153 14.5456 21.688L14.5545 21.6612C14.9842 22.4347 16.0514 22.0724 16.1841 22.1357C16.1676 22.177 16.1934 22.2885 16.2109 22.3865L16.2288 22.4133C16.2497 22.3685 16.2527 22.3058 16.2378 22.2253L16.202 22.1536L16.2333 22.1715C16.598 22.4422 17.0968 22.4243 17.5182 22.082V22.082Z" fill="#C3BDC9"/>
<path id="path3675" fill-rule="evenodd" clip-rule="evenodd" d="M15.042 22.7002C15.2868 22.8144 15.5426 22.9091 15.821 22.9644C15.6898 24.6024 14.86 26.4752 13.9855 27.0293L14.0079 26.5682C13.7938 26.2102 13.6243 25.6365 13.5781 24.4641L13.6498 24.3924C13.6698 25.209 13.7583 25.9593 14.0303 26.5323C14.4461 26.2199 15.3544 25.1783 15.4942 23.1747C15.5019 23.0523 15.4684 22.9755 15.4002 22.9375C15.2371 22.8475 15.1391 22.7737 15.042 22.7002Z" fill="#C1C0C8"/>
<path id="path3677" fill-rule="evenodd" clip-rule="evenodd" d="M11.877 29.6302C12.8219 29.8821 13.4474 28.059 13.8072 26.8314C13.6421 26.5026 13.4063 26.1616 13.3901 24.6699L13.3095 24.7505C13.2095 26.6625 13.1918 28.7732 11.877 29.6302Z" fill="#C3BDC9"/>
<path id="path3679" fill-rule="evenodd" clip-rule="evenodd" d="M12.329 21.3027L12.386 21.3598C12.3151 21.7209 11.8274 23.032 12.4303 24.31C12.0931 23.8123 11.8114 23.0246 12.329 21.3027Z" fill="#DFDDE3"/>
<path id="path3681" fill-rule="evenodd" clip-rule="evenodd" d="M11.8165 22.1074L11.6329 22.3987L9.62592 30.5469L11.7532 23.7598C11.8588 24.1552 11.9916 24.5658 12.5446 25.2097C11.7638 27.9793 10.5253 30.4525 9.46131 31.1041L9.56261 30.7685C9.10936 29.3963 9.4723 26.5135 10.2464 23.6143C9.75217 25.2034 8.73307 28.6792 9.37901 31.2116L9.17641 31.8385C11.2824 30.3998 12.5212 26.7949 12.9878 24.9564C12.8735 25.0485 12.7452 25.0981 12.6142 25.14C11.9531 24.5481 11.6342 23.5935 11.8165 22.1074Z" fill="#C3BDC9"/>
<path id="path3683" fill-rule="evenodd" clip-rule="evenodd" d="M10.5516 19.8252C10.6043 20.075 10.8983 20.3691 11.0441 20.6221C11.1223 20.7529 11.2098 20.8039 11.3216 20.649L11.4112 20.5057C11.631 20.7527 11.9303 20.8834 12.3692 20.8101L11.8409 22.0279C11.2282 23.2155 10.4124 23.4719 9.60254 23.7559L9.85324 23.2903C10.9075 23.1897 11.661 22.1499 12.0558 21.1862C11.7926 21.1272 11.539 21.0241 11.2421 20.8306L9.9965 22.9948L10.8202 20.8101C10.9862 20.4666 10.5503 20.1972 10.5516 19.8252Z" fill="#C3BDC9"/>
<path id="path3685" fill-rule="evenodd" clip-rule="evenodd" d="M10.0508 23.6133C9.90332 23.6748 9.74957 23.7299 9.58522 23.7745C8.23036 26.8116 7.47034 29.5222 5.05469 30.3696C7.24734 30.7855 8.72119 27.2726 9.25394 26.2188C9.64538 25.2622 9.87893 24.3719 10.0508 23.6133Z" fill="#CECAD5"/>
<path id="path3687" fill-rule="evenodd" clip-rule="evenodd" d="M10.3542 19.9102C10.1077 20.2057 9.26954 21.3776 9.79705 23.3354L9.84137 23.2783C9.46384 21.9801 9.85684 20.5331 10.3542 19.9102Z" fill="#E0DEE4"/>
<path id="path3689" fill-rule="evenodd" clip-rule="evenodd" d="M9.45051 21.6383C9.37982 22.1467 9.40601 22.5461 9.42812 22.9501C7.78465 25.8609 5.04001 28.5477 3.45605 28.658C5.47659 25.9514 7.49713 23.1545 9.51766 20.4028C9.64749 20.3474 9.77732 20.2582 9.90714 20.1699C9.69511 20.4827 9.59717 20.7383 9.55347 20.9669L3.99775 28.0894C5.85444 27.9356 8.897 23.5365 9.35202 22.3502C9.35531 21.9948 9.40013 21.8054 9.45051 21.6383Z" fill="#C3BDC9"/>
<path id="path3691" fill-rule="evenodd" clip-rule="evenodd" d="M3.79148 28.1925L3.92131 28.0313C3.76132 25.2831 6.87465 22.0155 7.71317 20.9893C7.57404 21.2867 3.60564 24.7728 3.79148 28.1925Z" fill="#DFDCE1"/>
<path id="path3693" fill-rule="evenodd" clip-rule="evenodd" d="M1.53516 23.2731C2.00127 24.0035 2.7854 24.4606 5.72545 22.6732C6.31341 22.0251 6.90137 21.3589 7.48932 20.8019L7.34606 20.793C6.35596 21.2063 3.80018 23.8839 1.53516 23.2731Z" fill="#DFDDE2"/>
<path id="path3695" fill-rule="evenodd" clip-rule="evenodd" d="M9.18178 18.1152C8.80528 18.2715 7.34961 18.7985 7.20302 20.4342L6.88965 20.6088C8.86924 21.268 10.3774 19.7726 10.677 19.4941C10.3683 19.2963 10.0534 19.1348 9.79062 18.6614L9.53097 18.7867C8.89186 19.3179 8.12109 19.8304 7.37762 20.3268L9.68318 19.1539C9.81687 19.3036 9.97019 19.4584 10.292 19.6552C8.89501 20.6149 7.80302 20.5671 7.27018 20.4298C7.34734 19.484 7.9118 18.6793 9.18178 18.1152Z" fill="#C3BDC9"/>
<path id="path3697" fill-rule="evenodd" clip-rule="evenodd" d="M6.95447 20.0615C6.91116 20.261 6.86053 20.4678 6.86583 20.6186C6.23546 20.867 5.5398 21.0645 4.75755 21.1948C4.71325 21.2073 4.50694 21.2865 4.42833 21.1378C4.33838 21.0798 4.23757 21.0652 4.13077 21.0745C4.11249 21.0257 4.01353 21.0473 4.00098 21.0017C5.91654 20.6699 6.79069 20.2112 6.95447 20.0615Z" fill="#CECAD5"/>
<path id="path3699" fill-rule="evenodd" clip-rule="evenodd" d="M4.80819 18.6504C4.30336 18.8963 2.20098 20.0137 1.83887 21.0816C2.86292 21.3918 3.63219 21.1207 4.09593 21.0769C4.07475 21.0475 3.98859 21.0533 3.9788 21.0056C3.21428 21.116 2.30162 21.1675 2.0478 21.0183L2.23773 20.9233C2.29685 20.0171 4.46419 18.8825 4.80819 18.6504V18.6504Z" fill="#DFDDE1"/>
<path id="path3701" fill-rule="evenodd" clip-rule="evenodd" d="M2.35742 20.8914C5.78259 19.6231 7.4432 18.6013 9.27106 17.9854V18.0487C9.1249 18.1414 7.92442 18.4228 7.45402 19.106L2.35742 20.8914Z" fill="#C3BDC9"/>
<path id="path3703" fill-rule="evenodd" clip-rule="evenodd" d="M8.67643 18.1755C8.43927 18.2749 8.20889 18.3541 7.96101 18.4857C6.84239 18.3231 6.66039 18.0439 6.18195 17.8146L6.27692 17.7766C6.45419 17.9054 6.67342 18.0061 6.88471 18.1122C7.21257 18.2228 7.29256 18.0905 6.96701 17.9729C6.57423 17.8479 6.3285 17.6795 6.1123 17.517C6.4978 16.7703 7.40558 16.4149 7.52416 16.3584C7.02104 16.6856 6.44057 16.9752 6.28958 17.4727C7.07081 17.357 7.89908 17.2201 8.91701 16.9979C8.99361 17.1331 9.06827 17.2667 9.21458 17.46L9.18925 17.4917L9.03731 17.3081L6.30857 17.517C7.0656 18.0349 7.87328 18.0843 8.67643 18.1755Z" fill="#C3BDC9"/>
<path id="path3705" fill-rule="evenodd" clip-rule="evenodd" d="M1.66504 17.1309C1.98268 18.1846 4.62439 17.9162 6.18662 17.8069L6.2672 17.78C6.14057 17.6919 6.03002 17.6039 5.96278 17.5159C5.31299 17.3796 2.36042 18 1.66504 17.1309Z" fill="#DFDDE2"/>
<path id="path3707" fill-rule="evenodd" clip-rule="evenodd" d="M6.64317 16.553L6.67451 16.5799C6.48946 16.7359 6.30442 16.8714 6.11938 17.0947C3.67208 17.1002 2.13163 16.1251 1.69629 15.5591C2.30152 15.0699 3.06544 14.8981 3.87202 14.8115C3.17869 15.0174 2.36688 15.1375 1.99624 15.5771H1.82164C2.95795 16.8466 5.98875 17.4126 6.64317 16.553Z" fill="#DFDDE2"/>
<path id="path3709" fill-rule="evenodd" clip-rule="evenodd" d="M2.14844 15.6172C3.77546 15.8462 5.36257 16.0453 7.03264 16.3066C7.25845 16.1081 7.66352 15.9783 8.2951 15.9351C8.08079 15.9293 7.90331 15.9069 7.56538 15.9574C5.70373 15.984 3.94552 15.752 2.14844 15.6172Z" fill="#C3BDC9"/>
<path id="path3711" fill-rule="evenodd" clip-rule="evenodd" d="M9.12329 15.3717C8.97083 15.5311 8.88983 15.7619 8.8323 16.0163C7.04332 15.4327 6.75207 14.3121 6.69238 14.1987C7.76733 13.4522 8.41517 13.7302 9.30684 13.7107C7.4118 13.6226 6.91344 14.1186 6.83116 14.2166C7.54262 14.4115 8.04568 14.5919 9.57097 14.8433C9.4252 14.9469 9.3334 15.0427 9.27103 15.1343C8.68178 14.8938 7.59321 14.5599 6.81773 14.2569C6.94011 14.7737 7.73998 15.5517 8.41148 15.7521C8.59909 15.8019 8.80404 15.8949 8.87707 15.6581C8.90554 15.5606 9.05393 15.4078 9.12329 15.3717Z" fill="#C3BDC9"/>
<path id="path3713" fill-rule="evenodd" clip-rule="evenodd" d="M2.31934 13.0205C2.65683 13.3633 3.96539 14.4944 6.34847 14.2113C6.4395 14.444 6.53053 14.5294 6.62155 14.6232C5.98903 14.5269 5.35431 14.4568 4.70995 14.5024C3.66274 14.1872 2.7064 13.8072 2.31934 13.0205Z" fill="#DFDDE2"/>
<path id="path3715" fill-rule="evenodd" clip-rule="evenodd" d="M7.18064 13.5128C7.2178 13.5354 7.25294 13.56 7.30151 13.571C6.91135 13.7257 6.60986 13.8939 6.37481 14.0724C5.173 13.7001 3.4677 12.8136 2.85156 11.6953C3.59568 11.3635 4.85838 11.5174 5.59137 11.6953C4.77805 11.6878 3.80666 11.5222 3.32163 11.843L2.95453 11.7132C3.10071 12.1908 5.65751 14.4196 7.18064 13.5128Z" fill="#DFDDE2"/>
<path id="path3717" fill-rule="evenodd" clip-rule="evenodd" d="M3.45117 11.9062C4.97818 12.4399 6.42752 12.9677 7.64595 13.4776C8.026 13.3854 8.39696 13.4112 8.76515 13.4731C8.6805 13.3898 8.59236 13.317 8.51892 13.2001L8.48759 13.2135L8.6398 13.415C6.56884 12.7089 5.03907 12.3248 3.45117 11.9063V11.9062Z" fill="#C3BDC9"/>
<path id="path3719" fill-rule="evenodd" clip-rule="evenodd" d="M8.25521 12.5104C8.13916 12.2907 8.02861 12.0654 8.01794 11.7404C7.44479 12.0098 4.82235 10.8746 4.19922 9.44824C4.24191 10.7042 6.48084 11.688 8.25521 12.5104Z" fill="#DFDDE2"/>
<path id="path3721" fill-rule="evenodd" clip-rule="evenodd" d="M9.77294 13.2942C9.69416 13.3812 9.62718 13.486 9.52671 13.5405C9.47567 13.5733 9.42853 13.5672 9.38345 13.5405C8.4594 12.9479 8.27384 11.9203 8.29559 11.7095C9.00642 11.5887 10.0002 11.6051 11.3667 12.4526C11.0674 12.389 10.0566 11.645 8.43885 11.7811C8.4089 12.3394 8.83448 13.4077 9.77294 13.2942Z" fill="#C3BDC9"/>
<path id="path3723" fill-rule="evenodd" clip-rule="evenodd" d="M8.56445 11.875L10.203 13.0703C10.4149 13.0812 10.6268 13.0755 10.8387 13.1777C10.8504 13.1356 10.8703 13.081 10.9058 13.0031C10.0022 12.627 9.34029 12.251 8.56445 11.875Z" fill="#C3BDC9"/>
<path id="path3725" fill-rule="evenodd" clip-rule="evenodd" d="M4.86523 8.05762L5.30209 8.31717C5.24538 9.30822 7.00283 11.2355 8.9615 11.3878C8.64125 11.4205 8.28594 11.4121 8.03082 11.5208C7.10561 10.9475 6.4819 10.3372 5.96686 9.805C5.85832 9.82126 5.77393 9.55014 5.59332 9.6341C5.09553 8.99083 4.89837 8.48638 4.86523 8.05762Z" fill="#DFDDE2"/>
<path id="path3727" fill-rule="evenodd" clip-rule="evenodd" d="M7.72084 8.82415C7.06607 8.57018 6.47156 8.279 5.33398 8.32397C7.09919 9.60377 8.06316 10.4102 9.36061 11.4136C9.95311 11.5024 10.5251 11.7656 11.1017 11.9897C11.0274 11.8314 10.9692 11.6732 10.9371 11.5149C10.9464 11.6478 10.9436 11.7808 11.0257 11.9137C10.2548 11.6919 7.08393 9.43691 5.53025 8.43154C6.1157 8.24737 6.94337 8.5904 7.72084 8.82415Z" fill="#C4BECA"/>
<path id="path3729" fill-rule="evenodd" clip-rule="evenodd" d="M8.6255 8.88698C7.91326 8.26832 7.1217 7.56464 6.94141 6.57617C7.77232 6.67478 9.39458 7.23472 10.6515 8.13996C9.48066 7.46831 8.37557 6.96506 7.47323 6.98132C7.39884 7.79993 8.15244 8.33925 8.6255 8.88698Z" fill="#DFDDE2"/>
<path id="path3731" fill-rule="evenodd" clip-rule="evenodd" d="M7.53017 7.00684L7.49219 7.03854C8.69404 7.92606 9.56433 8.77217 10.5122 9.62799C10.7805 9.853 10.7422 10.0956 10.7717 10.3371C10.8695 10.223 10.7417 9.83416 10.9501 9.79355C11.1463 9.75595 11.8984 10.1454 11.943 10.0838C10.1698 9.29775 8.98998 8.04205 7.53017 7.00684Z" fill="#C3BDC9"/>
<path id="path3733" fill-rule="evenodd" clip-rule="evenodd" d="M11.3036 11.7553C11.1334 11.4818 10.871 10.638 11.044 10.0713C13.3261 10.5644 13.7092 12.3597 13.7474 12.7177C13.411 11.4163 12.1697 10.2351 11.3162 10.3879C11.8385 10.868 12.4757 11.8528 12.8737 12.2745C12.6851 12.2841 12.4962 12.2934 12.3735 12.3442C12.0535 12.3085 11.9058 12.3726 11.7404 12.4265C11.5642 12.2225 11.5003 12.0684 11.3922 11.8947C11.6229 12.2203 11.9566 12.1708 12.3039 12.0719C11.9536 11.4332 11.6032 10.9735 11.2529 10.4322C11.0796 10.5627 11.2435 11.2438 11.3036 11.7553Z" fill="#E0DEE4"/>
<path id="path3735" fill-rule="evenodd" clip-rule="evenodd" d="M12.2217 9.32422C16.1038 11.9005 16.3969 16.135 13.6525 15.4401C16.9447 15.0446 13.0858 10.1541 12.2217 9.32422Z" fill="#DFDDE2"/>
<path id="path3737" fill-rule="evenodd" clip-rule="evenodd" d="M12.4004 12.3584C12.7196 12.2247 13.5757 12.2395 13.6136 13.5582L13.3316 13.7685C13.3374 13.4075 13.3947 12.5928 12.4004 12.3584Z" fill="#C3BDC9"/>
<path id="path3739" fill-rule="evenodd" clip-rule="evenodd" d="M13.332 13.7911L13.6275 13.5762C15.0404 14.1138 14.3474 15.6407 13.3634 15.3983C14.5387 15.2781 14.2852 13.78 13.332 13.7911Z" fill="#C3BDC9"/>
<path id="path3741" fill-rule="evenodd" clip-rule="evenodd" d="M17.8877 3.89023C18.0798 4.22532 17.5464 5.23109 18.4652 5.08C18.7766 5.27598 19.056 5.16963 19.1958 5.17043C19.8046 4.95835 19.7869 4.53841 19.8255 4.42599C19.2971 3.68243 19.8893 3.54057 19.9542 3.49358C20.281 3.53337 20.449 4.13627 20.0098 4.32853C20.0446 4.35635 20.098 4.35174 20.1699 4.31462C20.1634 5.28043 20.8495 5.34772 21.3249 5.1913C22.2615 5.44729 21.8074 4.36387 22.2502 3.55626C21.7474 4.44127 22.0715 5.24589 21.3388 5.14261C21.5273 4.6857 21.0293 4.32974 21.2762 3.83458C20.8943 4.16142 21.5288 4.7657 21.2762 5.08C21.0177 5.30632 20.767 5.11786 20.7613 5.0174C20.6556 4.68958 21.4046 4.29148 20.9561 3.68842C21.1097 4.01486 21.0567 4.16175 20.9743 4.36929C20.892 4.57683 20.5751 4.76497 20.7195 5.17738C20.3913 5.11244 20.221 4.72307 20.312 4.41588C20.4017 4.11305 20.5553 3.60544 19.982 3.44141C19.2581 3.65898 19.6265 4.23195 19.7138 4.33403C19.8915 4.52652 19.5655 5.10742 19.1575 5.10435C19.3442 4.81916 19.1229 4.76157 18.8479 4.30766C18.8277 4.54893 19.3962 4.87481 19.0705 5.06609C18.9035 5.19955 18.667 5.12109 18.5696 5.02436C18.3852 4.81479 18.8286 4.57052 18.747 4.16854C18.6281 4.75801 18.4567 4.72291 18.4791 5.00349C18.2658 5.06415 18.0432 5.14116 17.9738 4.73407C17.9783 4.17493 17.9672 3.83134 17.8877 3.89023Z" fill="#DFA12F"/>
<path id="path3743" fill-rule="evenodd" clip-rule="evenodd" d="M21.6521 6.16886L21.6625 6.22798C20.54 6.30037 19.3966 6.08555 18.2949 6.06096V6.00879C19.41 6.03621 20.2915 6.2321 21.6521 6.16886Z" fill="#DFA12F"/>
<path id="path3745" fill-rule="evenodd" clip-rule="evenodd" d="M19.9234 6.35938L19.9199 6.40459C20.5646 6.50537 21.2102 6.60728 21.7463 6.55423V6.50553C21.0999 6.58601 20.5166 6.45619 19.9234 6.35938Z" fill="#DFA12F"/>
<path id="path3747" fill-rule="evenodd" clip-rule="evenodd" d="M18.3815 5.43478C18.2034 5.49172 18.2872 5.75281 18.378 5.75135C18.5832 5.76154 18.7885 5.79083 18.9937 5.75831C19.1103 5.70347 19.1485 5.49762 19.0181 5.41392C18.8023 5.38738 18.5881 5.38763 18.3815 5.43478ZM18.3432 5.4C18.6975 5.33206 19.0204 5.37566 19.2025 5.41044C19.3656 5.45379 19.3661 5.73809 19.2025 5.79656C19.0172 5.81363 18.6188 5.80943 18.3467 5.78613C18.1677 5.63787 18.2606 5.45856 18.3432 5.4Z" fill="#E1A02F"/>
<path id="path3749" fill-rule="evenodd" clip-rule="evenodd" d="M19.6167 5.71658C20.0791 5.77725 20.47 5.81316 20.3716 5.45218C20.2399 5.45397 19.3497 5.25426 19.6167 5.71658ZM19.6028 5.76528C19.5402 5.6996 19.4538 5.55765 19.6237 5.38262C19.8819 5.36434 20.1459 5.38011 20.4134 5.4174C20.6592 5.51899 20.6372 5.73794 20.4343 5.83136C20.0003 5.83094 19.7694 5.80256 19.6028 5.76528H19.6028Z" fill="#E1A02F"/>
<path id="path3751" fill-rule="evenodd" clip-rule="evenodd" d="M20.8655 5.78254C21.3214 5.88057 21.7046 5.96558 21.6359 5.59772C21.5044 5.58874 20.6369 5.30008 20.8655 5.78254ZM20.8477 5.82993C20.7906 5.75941 20.7161 5.61091 20.8996 5.4502C21.554 5.484 21.4441 5.49201 21.6838 5.54903C21.9206 5.67027 21.8808 5.88672 21.671 5.9634C21.1034 5.97545 21.0053 5.88251 20.8477 5.82993Z" fill="#E1A02F"/>
<path id="path3753" fill-rule="evenodd" clip-rule="evenodd" d="M12.5528 12.9746L11.8262 15.1154C12.0284 15.1117 12.2014 15.1257 12.5528 15.0529C12.881 14.3788 12.9488 13.4242 12.5528 12.9746Z" fill="#C3BDC9"/>
<path id="path3755" fill-rule="evenodd" clip-rule="evenodd" d="M13.1384 17.1496L11.8255 15.1206C11.7936 15.0781 11.4945 15.9614 11.4531 16.2342C11.6148 16.679 12.3898 17.1386 13.1384 17.1496Z" fill="white"/>
<path id="path3757" fill-rule="evenodd" clip-rule="evenodd" d="M12.9239 15.5786C13.3837 15.4137 13.4724 15.1363 13.4786 14.9697L12.5547 15.0518C12.6859 15.217 12.82 15.3881 12.9239 15.5786Z" fill="#C3BDC9"/>
<path id="path3759" fill-rule="evenodd" clip-rule="evenodd" d="M11.391 14.0417C11.2053 13.9184 10.6026 13.8752 10.4766 13.9844L11.2481 14.6975C11.2792 14.4889 11.3226 14.2477 11.391 14.0417Z" fill="#C3BDC9"/>
<path id="path3761" fill-rule="evenodd" clip-rule="evenodd" d="M9.64844 16.2403L11.8123 15.1254C11.8613 15.1045 11.5531 15.9799 11.4523 16.2367C11.1952 16.3689 10.1223 16.625 9.64844 16.2403Z" fill="#C3BDC9"/>
</g>
<defs>
<linearGradient id="paint0_linear_20_2022" x1="11.4163" y1="16.4077" x2="15.6988" y2="19.7962" gradientUnits="userSpaceOnUse">
<stop stop-color="#C3BDC9"/>
<stop offset="1" stop-color="#C3BDC9" stop-opacity="0"/>
</linearGradient>
<linearGradient id="paint1_linear_20_2022" x1="23.8275" y1="24.8145" x2="10.8586" y2="18.1037" gradientUnits="userSpaceOnUse">
<stop stop-color="#C3BDC9"/>
<stop offset="1" stop-color="#C3BDC9" stop-opacity="0"/>
</linearGradient>
<linearGradient id="paint2_linear_20_2022" x1="30.5792" y1="14.7438" x2="22.8194" y2="20.6798" gradientUnits="userSpaceOnUse">
<stop stop-color="#C3BDC9"/>
<stop offset="1" stop-color="#C3BDC9" stop-opacity="0"/>
</linearGradient>
<clipPath id="clip0_20_2022">
<rect width="39.9925" height="47.05" fill="white" transform="translate(0 0.55957)"/>
</clipPath>
</defs>
</svg>
